<?xml version="1.0" standalone="no"?>
<!DOCTYPE svg PUBLIC "-//W3C//DTD SVG 20010904//EN"
 "http://www.w3.org/TR/2001/REC-SVG-20010904/DTD/svg10.dtd">
<svg version="1.0" xmlns="http://www.w3.org/2000/svg"
 width="466.000000pt" height="466.000000pt" viewBox="0 0 466.000000 466.000000"
 preserveAspectRatio="xMidYMid meet">
<metadata>
Created by potrace 1.11, written by Peter Selinger 2001-2013
</metadata>
<g transform="translate(0.000000,466.000000) scale(0.100000,-0.100000)"
fill="#000000" stroke="none">
<path d="M2247 4654 c-1 -1 -40 -4 -87 -8 -695 -49 -1353 -495 -1674 -1134
-118 -236 -190 -488 -213 -748 -3 -44 -6 -227 -6 -409 0 -354 9 -541 28 -621
2 -12 7 -39 10 -60 4 -21 10 -52 15 -69 5 -16 11 -42 14 -57 11 -65 93 -282
148 -393 276 -555 759 -942 1367 -1095 64 -16 142 -32 174 -35 32 -4 68 -9 80
-12 12 -3 535 -7 1162 -8 l1140 -2 -1 1336 c-1 1187 -4 1425 -19 1521 -3 14
-7 45 -10 70 -3 25 -12 70 -20 100 -8 30 -16 66 -19 80 -2 14 -20 73 -40 131
-258 769 -955 1326 -1757 1405 -53 5 -287 12 -292 8z"/>
</g>
</svg>
