<svg version="1.0" xmlns="http://www.w3.org/2000/svg" width="837.333" height="837.333" viewBox="0 0 628 628"><path d="M437.8.5c-.1.1-2.7.6-5.7.9C419 3 397.5 8.8 387 13.7c-14 6.4-24.2 12-24.8 13.5-.2.4-1 .8-1.8.8s-1.4.4-1.4 1c0 .5-.5 1-1.1 1-1.5 0-13.7 9.8-21.4 17.1-3.3 3.2-56.3 56-117.9 117.5L106.8 276.3l-13.7-13.9c-7.5-7.7-15.8-17.3-18.5-21.4-2.7-4.1-5.7-8.6-6.6-10-3.2-4.9-11.6-26.4-12-31-.1-.3-.5-2.3-1.1-4.5-2.9-12.4-2.9-34.5.1-48 8.2-37.7 32.1-67.8 66.3-83.8 5.4-2.5 16.3-6.5 19.7-7.2.8-.2 2.6-.6 4-.9 1.4-.3 3.9-.8 5.5-1.1 1.7-.3 4.6-.8 6.5-1.2 5.8-1 25-.6 33 .7 12.7 2 27.1 6.6 36 11.4 11.8 6.4 31.8 7.2 44.7 1.9 6.9-2.9 13.7-7.5 17.6-11.8 1.8-1.9 1.8-2.1-3.8-7.3-16.6-15.6-39.6-28.7-63-35.9-4.4-1.3-9.1-2.7-10.5-2.9-1.4-.3-4.1-.9-6-1.4-1.9-.5-6.2-1.2-9.5-1.6-3.3-.3-6.9-.8-8-1-2.6-.6-27-.5-31.6 0-9.4 1.2-12.6 1.6-14.9 2.1-1.4.3-5 1-8 1.6-3 .6-6.2 1.5-7.1 1.9-.9.5-2.7 1.1-4 1.3-5.7 1.1-22.9 8.7-35.9 16-15.7 8.7-35 26-47.1 42.2-3.3 4.4-6.8 8.9-7.7 10-.9 1.1-1.4 2-1.2 2 .2 0-.8 1.8-2.2 4-6.2 9.8-16.6 35.2-18.2 44.5-.3 1.4-.5 2.5-.6 2.5-.1 0-.3 1.1-.6 2.5-.2 1.4-.9 4.7-1.4 7.5C4.9 154 4.1 178.2 5.5 188c.2 1.9.7 6 1.1 9 .3 3 .8 5.8 1.1 6.3.2.4.6 2 .9 3.5 3.6 22.5 21.9 59.8 36.6 74.4 1.5 1.6 2.5 2.8 2.2 2.8-.3 0 52.2 52.6 116.7 117l117.2 116.9-14.4 14.4c-12.7 12.6-24.1 22.5-30.4 26.4-8.9 5.6-25.7 12.8-34.1 14.8-1 .2-3.7.9-5.9 1.4-11.3 2.8-30.6 3.4-42.5 1.4-9.9-1.6-18.3-3.5-19.5-4.3-.5-.4-2.8-1.3-5-2-19-6.1-40.6-22.3-54.2-40.7-11.2-15.1-19.9-36.2-22-52.8-.2-2.2-.6-5.6-.9-7.5-.5-4.7-.5-17.7.1-22 .4-3.6 1.8-12.1 2-13 .1-.3.5-2.1.9-4 1.3-5.9 3.8-13.2 6.7-19.8 5.4-11.8 7.1-18.2 7.4-28 .3-14.3-4-27.2-12.5-37.6l-3.8-4.6-4.1 4.3c-3.4 3.5-10 11.4-12.9 15.2-3.1 4.2-10.7 16.5-11.6 18.7-.6 1.6-1.4 2.8-1.8 2.8-.4 0-.8.4-.8 1 0 .5-1.4 3.8-3 7.2-4.8 9.9-10.9 29.6-12.5 40.8-.2 1.4-.7 3.8-1 5.5-1.4 6.7-1.3 37.1.1 46 3 19.2 8.5 37 16.2 52 4.8 9.5 16 26.6 21.3 32.5 3.8 4.3 14 14.8 17.1 17.6 4.2 3.7 16.7 13.4 17.3 13.4.4 0 2.5 1.3 4.8 2.8 12 8.2 36.4 18.5 49.2 20.8 1.6.3 3.1.7 3.5.9.4.2 2.9.7 5.6 1 2.7.4 5.7.9 6.7 1.1 7.2 2.1 37.6 2 48.7-.1 1.4-.3 4.1-.7 6-1 6.2-1.1 11.6-2.4 20.1-5.1 8.2-2.5 24.9-9.2 25.9-10.3.3-.3 3-1.9 6-3.5 5.4-2.9 17.2-10.6 21.8-14.3 7-5.5 21.1-19.4 127-125.1l115.6-115.3 8.4 8.3c6.9 6.8 18.5 19.6 23.3 25.6 5.6 7 15.8 28.3 17.3 36.2.1.3.4.9.7 1.5.4.5 1.2 4.1 1.9 8 .7 3.8 1.5 8.8 1.9 11 .8 4.7.7 22.7-.3 30.5-2 16.1-10.1 36.7-20.2 51.3-6 8.7-20.7 24-26.2 27.2-1.7 1.1-3.2 2.3-3.2 2.7 0 .4-.5.8-1.1.8-.6 0-2.5 1.1-4.2 2.4-4.2 3.1-17.5 9.6-19.6 9.6-1 0-2.2.5-2.8 1.1-1.1 1.1-3.9 1.9-15.1 4.5-15.4 3.5-41 3.7-49.6.4-1.4-.5-2.6-.8-2.6-.5 0 .8-13.4-3.5-22.4-7.4-5.4-2.3-12.3-4.8-15.4-5.7-5.7-1.5-19.5-2-24.2-.9-2.9.7-3.2.8-8.5 2.3-3.9 1.1-14 6.7-17 9.4-.8.7-2.2 1.9-3.1 2.7-1.5 1.3-1.3 1.8 2.7 5.6 5.4 5 18.5 15.5 19.5 15.5.4 0 1.6.7 2.6 1.7 2.4 2.2 4.2 3.1 18.3 10.2 13.4 6.7 28.7 12.1 38.5 13.7 1.4.3 3.6.7 5 .9 1.4.3 3.6.8 5 1 3.9.8 17.8 1.8 25 1.8 7.2 0 25.9-1.5 28-2.3.3-.1 1.2-.3 2-.4 5.8-.7 25.2-5.9 28.2-7.6 1-.6 2.2-1 2.8-1 1.6 0 17.7-7.9 25.8-12.7 11.1-6.5 21.4-14.6 31.5-24.8 5.1-5.1 9.7-9.9 10.2-10.7.6-.7 2.1-2.7 3.5-4.4 10.5-12.8 20.6-31.5 26.4-48.7 1.9-5.6 3.7-11.4 4-12.7.2-1.4.9-4.8 1.5-7.5 1.7-8.1 2.1-10.6 2.8-18 .8-8.2.7-28.4 0-33.5-1.6-10.1-2.1-13.6-2.3-15-.9-8.4-9.8-34-15.3-44.3-14-26-10.8-22.5-140.3-151.9L343.9 107.1l14.4-14.3C376.7 74.4 383.4 69 396 62.4c5.8-3.1 15.1-7.3 17.9-8 .9-.2 5.9-1.6 11.1-2.9 16.9-4.5 34.2-4.8 54.5-1 5.5 1 18.9 5.7 26 9 16.3 7.7 32.7 21.3 43.6 35.9 10.3 13.7 20.2 36.4 22.4 51.4 1 6.6 1.3 30.6.5 35.7-1.7 10.2-2.1 12.1-4.1 18.9-1.7 5.8-4.7 13.3-9.9 25.1-3.5 7.9-3.7 24.5-.4 35.3.2.7.3 1.5.3 1.7 0 1.5 7.6 14.5 10.5 18l3.4 4 2.9-3c16.4-17.6 28.7-37.6 36.7-60.2 3.9-10.7 6.2-20.7 8.2-34.3 1-6.4 1-34.5 0-41-.4-3-.9-6.6-1.1-8-.9-6.4-5.1-23.3-6.5-25.8-.4-.9-1.6-4-2.6-6.7-2.6-7.7-9.9-22-15.8-31-16.4-25.1-40-45.9-67.1-58.9-11.2-5.4-13.1-6.1-28.4-10.6-5.8-1.6-11.6-3-13.1-3s-3-.3-3.3-.7c-.4-.3-2.2-.8-3.9-.9-5-.5-39.6-1.3-40-.9zM397.3 228l87.2 87-84.7 84.6-84.7 84.6-87.2-87.1-87.2-87.1 84.4-84.4c46.4-46.5 84.5-84.5 84.7-84.5.2-.1 39.6 39.1 87.5 86.9z"/></svg>