<svg fill="none" height="700" viewBox="0 0 627 700" width="627" xmlns="http://www.w3.org/2000/svg" xmlns:xlink="http://www.w3.org/1999/xlink"><clipPath id="a"><path d="m0 0h626.49v700h-626.49z"/></clipPath><g clip-path="url(#a)"><path d="m469.77 445.819-156.53 90.37-156.52-90.37v-179.61l.39.23 155.16-89.58 156.13 90.14 1.37-.79 156.72-90.21v-.32l-276.9-165.67952c-10.984-6.57184-23.545-10.0424488-36.345-10.0424488-12.8.0000001-25.361 3.4706088-36.345 10.0424488l-242.45 145.08952c-10.5051 6.283-19.2012 15.183-25.2393 25.831-6.03805 10.647-9.21158658 22.679-9.21069981 34.919v268.32c-.00088677 12.241 3.17264981 24.273 9.21069981 34.92 6.0381 10.648 14.7342 19.548 25.2393 25.83l242.45 145.09c10.984 6.572 23.545 10.043 36.345 10.043s25.361-3.471 36.345-10.043l276.9-165.7v-168.67l-156.72 90.23z" fill="#01192d"/><path d="m156.719 266.211v.45l.39-.22z" fill="#6100c6"/><path d="m312.281 536.168-156.07-90.109v-179.08l156.07 90.099z" fill="#a7acb2" opacity=".3"/><path d="m312.281 357.259-156.07-90.1 156.07-90.29 156.07 90.11z" fill="#bec2c6" opacity=".2"/><path d="m468.351 446.248-156.07 90.1v-179.08l156.07-90.11z" fill="#79828c" opacity=".5"/></g></svg>