<?xml version="1.0" standalone="no"?>
<!DOCTYPE svg PUBLIC "-//W3C//DTD SVG 20010904//EN"
 "http://www.w3.org/TR/2001/REC-SVG-20010904/DTD/svg10.dtd">
<svg version="1.0" xmlns="http://www.w3.org/2000/svg"
 width="2000.000000pt" height="2000.000000pt" viewBox="0 0 2000.000000 2000.000000"
 preserveAspectRatio="xMidYMid meet">
<g transform="translate(0.000000,2000.000000) scale(0.100000,-0.100000)"
fill="#000000" stroke="none">
<path d="M13505 14984 c-908 -59 -1732 -330 -2470 -812 -1218 -795 -2036
-2101 -2219 -3542 -41 -323 -47 -882 -12 -1180 165 -1402 864 -2617 1991
-3462 323 -241 762 -487 1135 -634 1085 -427 2282 -465 3395 -107 302 97 714
284 1000 453 1153 683 1986 1802 2305 3095 339 1372 88 2802 -696 3975 -306
458 -717 891 -1166 1227 -731 549 -1603 883 -2538 973 -117 11 -617 21 -725
14z"/>
<path d="M5660 14739 c-849 -54 -1698 -352 -2407 -846 -500 -348 -957 -826
-1290 -1348 -597 -939 -845 -2057 -703 -3172 262 -2043 1838 -3704 3860 -4067
434 -78 424 -77 2748 -74 l2043 3 -103 75 c-569 412 -1072 939 -1455 1520
l-98 149 -1210 1 c-747 0 -1254 4 -1325 10 -993 89 -1859 642 -2357 1505 -371
642 -487 1439 -317 2175 201 869 783 1609 1581 2009 357 179 720 279 1132 311
83 6 585 10 1307 10 l1171 0 38 63 c65 105 203 306 303 437 164 215 298 368
521 591 230 230 400 379 626 547 77 57 142 106 144 108 9 8 -4080 1 -4209 -7z"/>
</g>
</svg>
