<?xml version="1.0" standalone="no"?>
<!DOCTYPE svg PUBLIC "-//W3C//DTD SVG 20010904//EN"
 "http://www.w3.org/TR/2001/REC-SVG-20010904/DTD/svg10.dtd">
<svg version="1.0" xmlns="http://www.w3.org/2000/svg"
 width="512.000000pt" height="512.000000pt" viewBox="0 0 512.000000 512.000000"
 preserveAspectRatio="xMidYMid meet">
<metadata>
Created by potrace 1.14, written by Peter Selinger 2001-2017
</metadata>
<g transform="translate(0.000000,512.000000) scale(0.100000,-0.100000)"
fill="#000000" stroke="none">
<path d="M685 4260 c-160 -5 -200 -9 -252 -28 -152 -54 -280 -163 -350 -299
-61 -116 -77 -180 -77 -303 0 -120 21 -205 76 -303 18 -31 472 -632 1008
-1333 672 -879 995 -1295 1040 -1336 122 -112 270 -163 450 -156 162 7 286 58
403 167 56 52 227 281 227 304 0 14 -354 995 -362 1003 -2 2 -84 -21 -182 -51
-324 -100 -626 -168 -801 -181 -193 -14 -394 76 -459 208 -31 62 -33 119 -8
185 10 27 177 298 370 603 281 443 350 557 340 567 -7 6 -236 172 -508 368
-481 346 -528 385 -486 401 15 6 86 -21 786 -296 212 -84 404 -159 428 -167
l43 -15 47 44 c26 24 68 58 94 76 52 35 185 102 205 102 6 0 43 56 80 125 64
118 83 142 103 130 5 -3 32 -47 61 -98 28 -51 53 -93 54 -95 2 -2 91 62 199
142 117 86 202 143 211 140 20 -8 22 -19 36 -197 11 -136 15 -157 28 -152 142
55 273 63 416 26 104 -28 255 -99 265 -126 9 -24 -9 -72 -54 -140 l-33 -51
121 0 c144 0 222 -18 351 -78 104 -49 155 -89 155 -119 0 -21 -34 -90 -75
-152 -20 -29 -20 -29 0 -21 88 34 161 40 245 21 21 -5 31 2 66 47 104 134 146
252 146 408 0 86 -4 119 -26 185 -79 246 -271 410 -520 444 -83 12 -3499 13
-3861 1z"/>
<path d="M2407 2839 c-92 -82 -167 -154 -167 -159 0 -4 23 -14 51 -20 202 -49
380 113 314 285 -9 25 -20 45 -24 45 -3 0 -82 -68 -174 -151z"/>
</g>
</svg>
