<?xml version="1.0" standalone="no"?>
<!DOCTYPE svg PUBLIC "-//W3C//DTD SVG 20010904//EN"
 "http://www.w3.org/TR/2001/REC-SVG-20010904/DTD/svg10.dtd">
<svg version="1.0" xmlns="http://www.w3.org/2000/svg"
 width="1691.000000pt" height="1691.000000pt" viewBox="0 0 1691.000000 1691.000000"
 preserveAspectRatio="xMidYMid meet">
<metadata>
Created by potrace 1.14, written by Peter Selinger 2001-2017
</metadata>
<g transform="translate(0.000000,1691.000000) scale(0.100000,-0.100000)"
fill="#000000" stroke="none">
<path d="M8684 15790 c-93 -55 -176 -104 -184 -109 -8 -5 -163 -98 -345 -206
-181 -108 -337 -200 -345 -205 -56 -34 -210 -126 -236 -140 -56 -32 -188 -111
-253 -151 -34 -21 -65 -39 -67 -39 -3 0 -21 -11 -42 -24 -20 -13 -183 -110
-362 -216 -179 -106 -374 -223 -435 -259 -60 -36 -119 -71 -130 -77 -43 -23
-70 -39 -75 -45 -3 -3 -17 -12 -32 -20 -15 -8 -84 -48 -153 -89 -70 -41 -141
-83 -158 -94 -49 -29 -546 -324 -802 -476 -126 -76 -243 -145 -260 -154 -16
-9 -43 -25 -60 -36 -16 -11 -48 -30 -70 -42 -22 -12 -48 -27 -57 -33 -10 -5
-149 -88 -310 -184 -161 -95 -317 -188 -345 -207 -29 -19 -57 -34 -61 -34 -5
0 -20 -8 -33 -18 -13 -11 -44 -30 -69 -44 -25 -14 -153 -90 -285 -168 -132
-79 -312 -186 -400 -238 -88 -52 -175 -104 -193 -115 l-33 -19 83 -51 c46 -27
99 -60 118 -72 40 -26 243 -150 400 -245 58 -35 128 -78 155 -95 54 -34 428
-263 457 -280 10 -5 73 -44 140 -85 881 -542 1078 -661 1078 -653 0 4 6 0 13
-9 9 -12 252 -164 459 -287 15 -9 93 -56 173 -106 80 -49 158 -97 173 -106 46
-27 576 -351 602 -368 14 -8 33 -20 42 -26 49 -28 266 -161 288 -176 14 -9
108 -68 210 -129 207 -126 206 -126 322 -195 45 -27 88 -53 93 -57 22 -18 468
-288 475 -288 5 0 10 -3 12 -8 12 -28 266 -154 335 -167 15 -2 50 -9 77 -14
113 -21 291 1 411 52 42 17 318 176 810 465 61 35 130 76 155 90 25 14 57 32
72 41 23 14 392 230 620 364 44 26 85 47 89 47 5 0 9 4 9 9 0 5 9 11 20 14 16
4 20 11 16 34 -4 24 -15 194 -20 325 -5 102 104 206 236 226 57 8 41 11 383
-81 l160 -43 45 24 c25 14 248 140 495 280 248 141 477 271 510 289 33 19 68
37 78 40 9 3 17 9 17 14 0 5 4 9 8 9 8 0 80 40 672 375 135 76 256 145 270
153 14 7 43 24 65 37 22 13 56 31 74 41 48 25 153 131 194 196 124 192 139
389 39 504 -13 16 -5074 3397 -5158 3447 -6 3 -87 -39 -180 -93z m28 -1500
c13 -6 41 -22 63 -35 22 -14 47 -28 55 -32 8 -4 24 -15 34 -25 11 -10 25 -18
32 -18 7 0 20 -7 28 -16 9 -8 16 -12 16 -8 0 4 8 0 18 -8 14 -12 364 -226 431
-263 10 -6 26 -17 35 -24 9 -7 16 -10 16 -5 0 5 4 4 8 -1 5 -9 281 -178 387
-238 11 -7 43 -26 72 -44 28 -18 56 -33 62 -33 6 0 11 -4 11 -10 0 -5 4 -10
10 -10 8 0 69 -35 135 -78 11 -7 28 -15 38 -18 9 -4 17 -10 17 -15 0 -5 4 -9
10 -9 5 0 33 -15 62 -33 29 -19 60 -37 68 -40 8 -4 34 -20 58 -35 32 -20 690
-417 824 -497 9 -5 54 -32 100 -60 46 -27 91 -54 100 -60 314 -186 354 -218
351 -282 -1 -13 -1 -35 -2 -50 -1 -32 -71 -102 -133 -134 -24 -12 -45 -24 -48
-28 -7 -9 -89 -61 -95 -61 -4 0 -27 -15 -53 -32 -26 -18 -90 -60 -144 -93 -53
-33 -148 -93 -212 -132 -135 -86 -151 -93 -199 -86 -30 4 -351 185 -393 222
-7 5 -15 7 -18 4 -3 -4 -6 -2 -6 4 0 9 -50 37 -59 33 -2 -1 -7 3 -10 8 -3 5
-28 23 -56 39 -134 80 -393 238 -417 255 -16 11 -28 16 -28 11 0 -4 -4 -3 -8
2 -7 11 -76 56 -102 68 -8 4 -27 15 -42 25 -15 9 -87 53 -160 97 -73 44 -152
92 -174 107 -23 15 -47 28 -53 28 -6 0 -11 5 -11 10 0 6 -4 10 -9 10 -8 0 -88
48 -402 239 -15 9 -53 31 -85 50 -33 19 -60 38 -62 43 -2 4 -8 8 -13 8 -7 0
-111 59 -159 90 -8 6 -28 19 -44 30 -16 10 -33 17 -38 14 -4 -3 -8 -1 -8 4 0
4 -53 40 -117 79 -65 39 -158 96 -208 127 -49 30 -117 71 -150 91 -33 19 -78
46 -100 60 -22 13 -56 33 -75 44 -19 10 -48 34 -64 52 -25 28 -30 42 -30 88
-1 81 20 105 171 192 70 41 137 79 148 86 11 7 27 16 35 20 8 4 112 63 230
131 118 69 229 131 245 138 36 16 85 18 117 4z m-2217 -1264 c19 -8 35 -13 35
-10 0 3 10 -4 22 -16 12 -11 25 -20 29 -20 4 0 24 -11 46 -25 21 -14 42 -25
47 -24 5 0 12 -3 15 -8 11 -14 87 -63 99 -63 7 0 12 -4 12 -10 0 -5 4 -10 9
-10 4 0 68 -37 142 -81 198 -121 212 -129 232 -136 9 -3 17 -9 17 -14 0 -5 5
-9 11 -9 6 0 23 -8 37 -19 24 -16 62 -39 127 -75 11 -6 46 -28 78 -49 31 -20
60 -37 63 -37 3 0 24 -13 47 -28 23 -16 49 -32 57 -35 8 -4 78 -45 155 -93 77
-47 147 -88 155 -92 8 -3 17 -8 20 -12 4 -5 112 -71 172 -105 81 -47 286 -171
299 -182 9 -7 19 -10 22 -6 4 3 7 2 7 -4 0 -6 14 -16 30 -23 17 -7 30 -16 30
-21 0 -5 6 -9 14 -9 8 0 21 -6 28 -14 8 -7 24 -17 36 -20 12 -4 22 -12 22 -17
0 -6 4 -8 8 -5 5 3 18 -4 30 -14 12 -11 23 -20 26 -20 4 0 490 -292 711 -426
22 -14 48 -27 58 -31 9 -3 17 -9 17 -14 0 -5 6 -9 13 -9 31 0 75 -91 71 -143
-5 -48 -67 -126 -101 -127 -7 0 -13 -4 -13 -10 0 -5 -7 -10 -15 -10 -8 0 -15
-4 -15 -10 0 -5 -4 -10 -10 -10 -5 0 -25 -10 -44 -22 -19 -13 -67 -43 -106
-68 -40 -25 -79 -51 -86 -58 -8 -7 -14 -10 -14 -6 0 4 -8 0 -17 -8 -16 -13
-208 -135 -349 -221 -63 -38 -122 -43 -176 -16 -24 12 -46 27 -50 33 -4 6 -8
7 -8 3 0 -4 -6 -3 -12 3 -28 23 -88 59 -88 52 0 -4 -4 -2 -8 3 -6 9 -116 78
-197 125 -16 10 -86 52 -153 94 -68 42 -126 76 -128 76 -2 0 -34 19 -72 43
-37 23 -77 47 -88 54 -10 6 -68 41 -127 77 -60 36 -113 66 -118 66 -5 0 -9 5
-9 10 0 6 -4 10 -9 10 -5 0 -33 16 -62 35 -30 19 -59 35 -66 35 -7 0 -13 4
-13 10 0 5 -11 12 -25 16 -14 3 -25 9 -25 13 0 4 -35 27 -77 50 -43 24 -92 55
-110 67 -17 13 -42 29 -55 34 -30 14 -56 30 -95 58 -17 12 -33 22 -36 22 -2 0
-98 58 -214 128 -115 71 -216 131 -224 135 -7 4 -26 15 -41 25 -101 64 -251
152 -259 152 -5 0 -9 3 -9 8 0 4 -9 12 -20 17 -11 6 -94 55 -185 110 -90 55
-174 104 -185 110 -11 5 -20 13 -20 17 0 5 -5 8 -10 8 -6 0 -29 12 -53 27 -23
14 -43 25 -45 24 -1 -1 -9 4 -17 11 -7 7 -31 24 -53 37 -84 50 -105 161 -44
228 17 18 97 73 106 73 3 0 43 22 88 49 229 135 609 350 625 354 34 9 54 7 88
-7z"/>
<path d="M2366 8313 c2 -3417 2 -3438 22 -3513 38 -141 133 -288 238 -368 32
-24 387 -242 686 -421 14 -9 59 -36 100 -61 40 -24 84 -51 98 -60 14 -8 63
-37 108 -65 45 -27 90 -55 100 -60 9 -6 71 -43 137 -83 66 -40 129 -79 140
-85 10 -7 37 -23 60 -37 22 -13 48 -29 58 -35 10 -5 72 -43 137 -83 66 -39
124 -72 129 -72 5 0 11 -4 13 -9 2 -4 50 -36 108 -70 58 -35 182 -110 275
-167 94 -57 199 -121 235 -142 36 -22 148 -89 249 -151 102 -61 188 -111 192
-111 4 0 9 -3 11 -8 3 -6 193 -124 381 -234 34 -20 67 -41 74 -47 7 -6 14 -11
17 -11 5 0 101 -58 701 -423 127 -77 244 -147 260 -157 17 -9 91 -54 165 -100
74 -45 149 -90 165 -100 17 -9 147 -88 290 -175 657 -399 718 -435 727 -435 2
0 3 398 3 885 l0 885 -58 35 c-32 19 -62 35 -67 35 -4 0 -10 4 -12 8 -3 6
-398 249 -476 292 -15 8 -29 17 -32 20 -3 3 -17 12 -32 20 -16 8 -138 83 -273
165 -135 83 -266 162 -291 176 -25 14 -53 31 -62 37 -16 11 -442 270 -487 296
-61 36 -191 114 -265 161 -47 30 -90 54 -97 55 -6 0 -13 3 -15 8 -1 4 -16 15
-33 25 -135 80 -421 253 -425 258 -3 3 -12 8 -20 12 -8 4 -100 58 -204 122
-103 63 -192 115 -196 115 -5 0 -10 3 -12 8 -1 4 -84 56 -183 115 -99 60 -290
176 -425 258 -135 82 -252 153 -260 156 -8 4 -33 19 -55 34 -22 15 -56 36 -76
47 -76 42 -84 47 -89 53 -3 3 -19 13 -35 22 -78 40 -214 191 -274 305 -18 35
-52 132 -57 167 -3 17 -9 46 -15 65 -5 21 -8 615 -6 1480 l2 1445 29 49 c65
110 167 158 286 133 41 -9 78 -26 225 -107 108 -60 164 -90 260 -140 55 -29
147 -78 205 -110 58 -32 141 -77 185 -100 44 -23 123 -65 175 -93 52 -27 100
-53 105 -57 6 -4 69 -38 140 -75 72 -38 147 -79 167 -92 21 -13 40 -23 42 -23
3 0 54 -26 113 -58 128 -70 234 -126 340 -183 92 -49 184 -99 268 -144 131
-72 411 -222 425 -228 8 -4 38 -20 65 -35 28 -15 95 -52 150 -81 55 -29 105
-57 110 -61 6 -5 10 -156 9 -419 l0 -411 135 -74 c124 -67 166 -89 301 -164
180 -99 603 -330 640 -349 25 -13 63 -35 85 -48 77 -46 70 -139 69 982 -1 555
-4 1022 -7 1038 -22 127 -89 277 -166 372 -93 113 -85 108 -846 558 -137 81
-299 177 -360 214 -60 36 -119 71 -130 77 -42 23 -175 102 -623 368 -23 14
-44 25 -46 23 -2 -1 -12 5 -22 14 -25 21 -243 149 -255 149 -5 0 -9 5 -9 10 0
6 -5 10 -11 10 -6 0 -30 14 -54 30 -24 17 -46 30 -48 30 -5 0 -290 168 -337
198 -14 9 -27 17 -30 17 -3 0 -19 9 -35 20 -47 31 -69 45 -85 52 -8 4 -92 53
-187 110 -94 57 -177 103 -182 103 -6 0 -11 5 -11 10 0 6 -4 10 -9 10 -5 0
-38 18 -72 40 -35 22 -80 48 -99 58 -19 11 -138 80 -264 155 -125 76 -231 137
-234 137 -3 0 -19 11 -36 23 -17 13 -36 26 -42 28 -6 2 -113 65 -238 139 -125
74 -239 142 -255 151 -15 9 -129 77 -252 149 -123 73 -303 179 -399 236 -96
57 -180 108 -187 113 -7 6 -14 11 -17 11 -5 0 -206 117 -256 149 -23 14 -70
41 -74 41 0 0 0 -1547 0 -3437z"/>
<path d="M14165 11028 c-58 -12 -145 -48 -181 -75 -17 -13 -33 -21 -36 -18 -3
3 -11 -1 -18 -10 -7 -8 -19 -15 -26 -15 -8 0 -14 -5 -14 -11 0 -5 -4 -8 -9 -4
-5 3 -17 -2 -25 -11 -9 -8 -16 -12 -16 -8 0 3 -6 2 -12 -4 -14 -10 -47 -30
-138 -78 -30 -16 -58 -33 -61 -37 -3 -5 -9 -8 -13 -7 -3 0 -46 -21 -94 -47
-102 -56 -153 -84 -254 -137 -40 -21 -76 -43 -79 -48 -3 -5 -9 -10 -12 -10
-19 0 -47 -12 -47 -19 0 -5 -7 -9 -15 -9 -8 0 -15 -5 -15 -11 0 -5 -4 -7 -10
-4 -5 3 -10 1 -10 -5 0 -6 -4 -9 -9 -6 -5 3 -20 -3 -33 -14 -14 -11 -28 -16
-32 -13 -3 3 -6 1 -6 -6 0 -7 -4 -9 -10 -6 -5 3 -10 3 -10 -2 0 -4 -27 -21
-60 -38 -33 -16 -60 -33 -60 -38 0 -4 -4 -6 -9 -2 -5 3 -17 -2 -25 -11 -9 -8
-16 -13 -16 -9 0 3 -12 -2 -27 -13 -16 -11 -38 -23 -50 -26 -13 -4 -23 -12
-23 -18 0 -6 -3 -8 -6 -5 -4 4 -19 -2 -34 -13 -16 -11 -33 -20 -39 -20 -6 0
-11 -5 -11 -12 0 -6 -3 -8 -6 -5 -4 4 -20 -3 -35 -14 -16 -11 -29 -18 -29 -15
0 3 -21 -8 -47 -24 -26 -17 -53 -30 -60 -30 -7 0 -13 -4 -13 -10 0 -5 -7 -10
-15 -10 -8 0 -15 -5 -15 -11 0 -5 -4 -8 -9 -4 -5 3 -17 -2 -25 -11 -9 -8 -16
-13 -16 -10 0 4 -17 -4 -37 -17 -21 -13 -53 -30 -70 -38 -18 -8 -33 -18 -33
-22 0 -5 -4 -5 -10 -2 -5 3 -10 1 -10 -4 0 -6 -6 -11 -14 -11 -8 0 -22 -8 -32
-17 -10 -10 -20 -17 -23 -17 -10 3 -86 -38 -93 -50 -4 -6 -8 -7 -8 -2 0 5 -9
1 -21 -10 -12 -10 -24 -18 -28 -16 -3 1 -13 -3 -22 -10 -8 -7 -22 -14 -30 -16
-7 -2 -17 -9 -21 -15 -4 -7 -8 -9 -8 -4 0 4 -17 -3 -37 -16 -21 -13 -64 -36
-95 -52 -32 -16 -58 -33 -58 -38 0 -4 -4 -5 -10 -2 -5 3 -10 2 -10 -3 0 -5 -6
-9 -13 -9 -7 0 -37 -15 -67 -35 -30 -19 -58 -35 -63 -36 -17 -3 -73 -36 -79
-46 -4 -6 -8 -8 -8 -4 0 4 -22 -5 -48 -21 -27 -16 -59 -32 -70 -36 -12 -3 -22
-11 -22 -17 0 -6 -3 -8 -6 -5 -4 4 -19 -2 -34 -13 -16 -11 -33 -20 -39 -20 -6
0 -11 -5 -11 -10 0 -6 -3 -10 -7 -9 -16 2 -53 -14 -53 -22 0 -5 -8 -9 -19 -9
-10 0 -24 -7 -31 -15 -7 -8 -19 -15 -26 -15 -8 0 -14 -3 -14 -7 0 -5 -20 -16
-45 -26 -25 -11 -45 -24 -45 -30 0 -6 -3 -8 -6 -4 -3 3 -28 -8 -55 -24 -28
-16 -54 -29 -59 -29 -6 0 -10 -4 -10 -10 0 -5 -3 -9 -7 -8 -13 3 -67 -25 -91
-46 -13 -12 -25 -20 -28 -19 -8 5 -74 -31 -74 -39 0 -5 -4 -6 -10 -3 -5 3 -10
1 -10 -4 0 -6 -3 -10 -7 -9 -10 3 -76 -32 -84 -44 -3 -5 -9 -9 -13 -9 -11 2
-111 -51 -114 -60 -2 -5 -8 -9 -14 -9 -18 0 -118 -52 -118 -61 0 -5 -3 -8 -7
-7 -10 3 -76 -32 -84 -44 -3 -5 -10 -10 -15 -10 -23 -2 -44 -11 -44 -19 0 -5
-6 -9 -14 -9 -7 0 -30 -11 -50 -25 -20 -13 -36 -22 -36 -20 0 3 -18 -6 -40
-20 -22 -14 -44 -25 -48 -25 -5 0 -22 -10 -38 -22 -16 -13 -30 -22 -31 -20 -5
4 -137 -70 -144 -81 -3 -5 -10 -9 -15 -9 -21 -2 -64 -21 -64 -29 0 -5 -6 -9
-14 -9 -8 0 -21 -6 -28 -12 -7 -7 -19 -14 -26 -16 -7 -1 -31 -13 -52 -27 -22
-14 -44 -25 -50 -25 -5 0 -10 -4 -10 -10 0 -5 -3 -10 -7 -9 -16 2 -53 -14 -53
-22 0 -5 -7 -9 -15 -9 -8 0 -15 -4 -15 -10 0 -5 -3 -9 -7 -9 -14 3 -73 -25
-73 -34 0 -4 -5 -5 -10 -2 -6 3 -13 -1 -16 -10 -4 -9 -13 -14 -20 -11 -8 3
-14 1 -14 -4 0 -5 -11 -12 -25 -16 -14 -3 -25 -10 -25 -15 0 -5 -9 -9 -20 -9
-11 0 -20 -3 -20 -7 0 -5 -27 -21 -60 -37 -33 -16 -60 -33 -60 -38 0 -5 -4 -7
-9 -4 -5 3 -13 0 -18 -7 -11 -13 -10 -6674 1 -6718 8 -36 35 -98 49 -116 32
-41 121 -122 128 -117 5 3 9 1 9 -4 0 -8 33 -23 43 -19 1 0 13 -6 27 -13 36
-19 161 -22 209 -5 21 7 42 11 45 8 3 -4 6 -1 6 6 0 7 4 9 10 6 5 -3 10 -1 10
5 0 6 5 8 10 5 6 -3 10 -1 10 4 0 6 6 11 14 11 8 0 21 7 29 15 8 8 33 24 56
36 22 11 41 26 41 32 0 6 3 7 6 4 4 -4 19 2 34 13 16 11 31 20 34 20 8 0 100
63 108 75 4 6 8 7 8 3 0 -7 110 59 137 82 7 6 24 15 38 20 14 5 25 14 25 20 0
5 3 9 8 8 13 -3 57 20 80 41 12 12 22 18 22 14 0 -4 7 1 16 12 8 11 18 19 22
19 12 -2 52 19 52 28 0 4 7 8 15 8 8 0 15 5 15 11 0 5 4 8 8 5 5 -3 18 3 29
14 12 10 23 16 27 13 3 -3 8 2 12 11 3 9 10 13 15 11 4 -3 17 2 27 12 10 10
25 19 33 21 7 2 17 9 21 15 4 7 11 12 15 12 4 1 27 13 51 28 24 15 54 33 68
39 13 6 24 16 24 21 0 6 3 7 7 4 4 -4 20 5 36 20 17 16 27 21 23 13 -5 -9 -2
-8 7 3 8 9 19 17 26 17 6 0 11 5 11 12 0 6 3 9 6 5 4 -3 25 6 48 21 49 32 64
41 134 82 28 18 59 38 67 46 8 8 18 15 22 16 16 2 53 21 53 28 0 3 16 12 35
20 19 8 35 16 35 20 0 3 20 16 45 30 25 14 45 29 45 34 0 5 3 7 6 4 5 -6 60
26 91 52 7 5 17 10 23 10 5 0 10 5 10 11 0 5 4 8 10 4 5 -3 18 3 30 15 11 11
25 20 30 20 6 0 10 5 10 11 0 5 4 8 9 4 5 -3 16 2 24 10 9 8 20 15 26 15 6 0
11 5 11 11 0 5 4 8 9 5 4 -3 16 3 26 14 10 11 22 17 26 14 5 -3 9 0 9 5 0 6 7
11 15 11 8 0 15 5 15 10 0 6 4 10 10 10 12 0 123 70 131 82 3 6 9 8 12 6 4 -1
17 6 29 17 13 10 24 17 25 15 1 -3 11 3 22 12 11 9 22 14 25 11 3 -4 6 -1 6 5
0 7 6 12 13 12 7 0 22 8 33 17 11 10 26 19 34 21 8 2 17 8 18 13 2 5 10 9 18
9 8 0 14 5 14 11 0 5 5 7 10 4 6 -3 13 1 16 9 3 9 12 16 18 16 7 0 18 6 25 13
6 6 15 12 19 12 10 1 62 35 91 59 14 12 21 15 16 6 -7 -13 21 6 45 30 3 3 12
6 20 8 8 2 17 8 18 13 2 5 10 9 17 9 8 0 18 7 23 16 5 9 12 15 16 15 11 -2
136 73 136 81 0 4 8 8 18 8 11 0 27 9 37 20 10 11 23 20 30 20 6 0 21 9 33 20
12 12 22 18 22 14 0 -4 8 0 18 8 9 8 40 27 67 43 28 15 60 37 73 48 12 11 22
17 22 14 0 -6 105 58 120 73 3 3 12 6 20 8 8 2 24 12 35 22 11 10 30 21 43 25
12 3 22 11 22 16 0 5 7 9 15 9 8 0 15 5 15 10 0 6 7 10 15 10 8 0 15 5 15 11
0 5 5 7 10 4 6 -3 10 -1 10 4 0 6 7 11 15 11 8 0 15 5 15 10 0 6 3 9 8 8 10
-2 72 36 72 45 0 5 4 6 9 3 5 -3 14 1 21 9 7 8 19 15 26 15 8 0 14 5 14 10 0
6 7 10 15 10 8 0 15 5 15 10 0 6 6 10 14 10 8 0 22 7 30 16 9 8 16 13 16 9 0
-4 7 0 15 7 26 23 40 33 55 36 8 2 19 10 23 18 5 8 12 12 16 10 4 -3 25 9 46
27 22 18 36 26 32 20 -5 -7 21 7 56 31 36 25 68 42 71 39 3 -4 6 -1 6 5 0 7 7
12 15 12 9 0 18 7 21 15 4 8 10 13 14 10 4 -3 13 2 20 10 7 8 19 15 26 15 8 0
23 9 34 20 11 11 20 17 20 13 0 -5 4 -3 8 3 4 6 34 25 67 44 33 18 75 45 93
58 17 13 32 20 32 16 0 -5 6 -2 13 6 7 8 29 24 50 35 20 11 37 23 37 28 0 4 5
5 10 2 6 -3 13 1 16 9 3 9 10 13 16 10 5 -3 18 3 29 15 11 12 26 21 35 21 8 0
17 7 20 15 4 8 10 12 15 9 5 -3 9 0 9 5 0 6 5 11 11 11 6 0 30 14 54 30 24 17
48 30 54 30 5 0 14 8 20 17 5 10 12 17 15 16 11 -4 66 24 59 30 -3 4 1 7 9 7
9 0 21 7 28 15 7 8 16 12 21 9 5 -3 9 0 9 5 0 6 7 11 15 11 8 0 15 3 15 8 0 4
10 12 23 17 l22 10 0 748 c0 412 -3 754 -7 760 -6 9 -8 9 -8 0 0 -7 -4 -13 -9
-13 -12 0 -115 -63 -119 -72 -2 -5 -9 -8 -17 -8 -7 0 -18 -7 -25 -15 -7 -9
-15 -13 -18 -11 -2 3 -24 -8 -47 -24 -23 -16 -45 -26 -49 -23 -3 4 -6 2 -6 -4
0 -6 -13 -16 -30 -23 -16 -7 -30 -16 -30 -20 0 -4 -11 -11 -25 -14 -14 -4 -25
-11 -25 -17 0 -6 -4 -8 -9 -5 -5 3 -14 -1 -21 -9 -7 -8 -18 -15 -25 -15 -6 0
-20 -9 -30 -20 -9 -10 -20 -18 -24 -17 -8 2 -255 -145 -259 -155 -2 -5 -8 -6
-13 -2 -5 3 -9 0 -9 -5 0 -6 -3 -10 -7 -9 -5 1 -27 -10 -50 -25 -24 -15 -47
-27 -52 -27 -6 0 -15 -8 -20 -17 -6 -10 -11 -15 -11 -11 0 9 -102 -51 -112
-66 -4 -6 -8 -7 -8 -2 0 5 -8 2 -18 -7 -10 -10 -22 -14 -25 -10 -4 3 -7 2 -7
-4 0 -6 -13 -16 -30 -23 -16 -7 -30 -16 -30 -21 0 -5 -3 -8 -7 -7 -7 3 -82
-39 -93 -51 -3 -4 -12 -7 -20 -9 -8 -2 -16 -8 -18 -13 -2 -5 -10 -9 -18 -9 -8
0 -14 -5 -14 -11 0 -5 -5 -7 -10 -4 -6 3 -13 -1 -16 -9 -3 -9 -10 -13 -15 -10
-5 3 -9 0 -9 -6 0 -6 -4 -9 -8 -6 -5 3 -19 -4 -30 -15 -12 -10 -24 -18 -26
-17 -3 2 -14 -5 -25 -14 -11 -9 -22 -14 -25 -11 -3 4 -6 1 -6 -5 0 -7 -3 -11
-7 -10 -11 4 -73 -35 -73 -45 0 -4 -4 -6 -8 -3 -5 3 -18 -2 -28 -12 -11 -9
-26 -18 -34 -20 -8 -2 -25 -13 -37 -24 -13 -12 -23 -18 -23 -13 0 4 -8 2 -17
-6 -10 -8 -30 -21 -45 -29 -16 -7 -28 -17 -28 -22 0 -5 -4 -7 -9 -3 -5 3 -16
-2 -24 -10 -9 -8 -20 -15 -26 -15 -6 0 -11 -5 -11 -11 0 -5 -4 -8 -9 -5 -5 3
-14 -1 -21 -9 -7 -8 -16 -13 -20 -10 -4 3 -11 -2 -14 -11 -3 -8 -10 -12 -16
-9 -6 3 -13 -1 -16 -9 -3 -9 -10 -13 -15 -10 -5 3 -9 0 -9 -5 0 -6 -3 -10 -7
-9 -7 2 -60 -29 -73 -42 -3 -3 -12 -6 -20 -8 -8 -2 -16 -8 -18 -13 -2 -5 -10
-9 -18 -9 -8 0 -14 -5 -14 -12 0 -6 -3 -8 -6 -5 -4 4 -19 -2 -34 -13 -16 -11
-33 -20 -39 -20 -6 0 -11 -4 -11 -10 0 -5 -11 -12 -25 -16 -14 -3 -25 -10 -25
-15 0 -5 -5 -9 -10 -9 -6 0 -36 -16 -66 -35 -30 -19 -57 -35 -59 -35 -8 0 -89
-54 -96 -63 -3 -5 -10 -9 -15 -9 -21 -1 -54 -18 -54 -28 0 -6 -4 -9 -8 -6 -5
3 -18 -3 -28 -12 -10 -10 -34 -25 -51 -32 -18 -8 -33 -19 -33 -23 0 -5 -4 -6
-9 -3 -5 3 -14 -1 -21 -9 -7 -8 -19 -15 -26 -15 -8 0 -14 -4 -14 -10 0 -5 -6
-10 -13 -10 -7 0 -22 -8 -33 -18 -10 -10 -22 -19 -26 -20 -26 -7 -78 -37 -78
-44 0 -5 -5 -6 -10 -3 -6 3 -13 -1 -16 -9 -3 -9 -9 -14 -14 -11 -4 2 -16 -4
-27 -15 -12 -10 -24 -16 -27 -13 -3 4 -6 0 -6 -7 0 -7 -3 -11 -6 -7 -4 3 -26
-7 -50 -24 -24 -16 -44 -27 -44 -24 0 4 -7 0 -15 -7 -34 -31 -43 -36 -49 -31
-3 4 -6 1 -6 -6 0 -7 -4 -10 -8 -7 -5 3 -18 -3 -29 -14 -12 -10 -23 -16 -27
-13 -3 3 -8 -2 -12 -11 -3 -9 -10 -13 -15 -10 -5 3 -9 1 -9 -4 0 -6 -11 -13
-25 -16 -14 -4 -25 -11 -25 -17 0 -6 -4 -8 -9 -5 -5 3 -14 -1 -21 -9 -7 -8
-18 -15 -24 -15 -7 0 -22 -9 -34 -20 -12 -12 -22 -18 -22 -15 0 3 -13 -2 -30
-12 -16 -9 -30 -21 -30 -26 0 -4 -4 -5 -10 -2 -5 3 -10 2 -10 -3 0 -5 -18 -17
-40 -27 -22 -10 -40 -22 -40 -27 0 -5 -4 -6 -10 -3 -5 3 -10 1 -10 -4 0 -6 -3
-10 -7 -9 -5 1 -27 -10 -51 -25 -24 -15 -54 -33 -68 -39 -13 -6 -24 -15 -24
-20 0 -5 -4 -6 -10 -3 -5 3 -10 1 -10 -6 0 -7 -3 -10 -6 -6 -4 3 -22 0 -42 -8
-19 -9 -58 -16 -86 -16 -54 -2 -176 28 -176 42 0 5 -6 9 -14 9 -8 0 -16 7 -20
15 -3 8 -13 15 -21 15 -9 0 -14 4 -11 9 3 5 0 11 -8 14 -24 9 -70 98 -81 156
-7 34 -10 172 -8 370 1 174 5 656 7 1071 9 1310 15 1864 19 1895 3 17 10 44
17 60 6 17 11 31 10 33 0 1 9 24 21 50 12 26 21 50 21 55 -1 4 2 7 7 7 5 0 12
8 15 18 4 10 21 34 40 53 19 18 32 37 29 41 -2 5 3 8 11 8 8 0 19 6 23 13 15
24 135 100 206 130 15 6 27 15 27 20 0 4 5 5 10 2 6 -3 10 -1 10 5 0 6 5 8 10
5 6 -3 10 -1 10 4 0 6 7 11 15 11 8 0 15 4 15 10 0 5 3 9 8 8 12 -3 62 24 62
34 0 4 3 8 8 7 16 -2 52 14 52 24 0 6 3 7 6 4 4 -4 19 2 34 13 16 11 31 20 34
20 4 0 25 12 49 27 23 14 42 25 42 23 0 -2 18 8 40 22 22 14 50 28 63 32 12 4
22 12 22 17 0 6 4 8 9 4 5 -3 16 1 23 9 8 7 24 17 36 20 12 4 22 12 22 17 0 6
5 7 10 4 6 -3 10 -1 10 5 0 6 4 9 9 5 5 -3 15 1 23 8 7 7 43 28 81 47 37 18
67 37 67 43 0 6 3 7 6 4 4 -4 19 2 34 13 15 11 30 17 34 13 3 -3 6 -1 6 6 0 7
5 9 10 6 6 -3 10 -2 10 4 0 5 14 12 30 16 17 4 28 11 25 16 -3 4 6 11 20 15
14 3 25 10 25 16 0 5 5 6 11 3 5 -4 18 0 27 8 9 8 46 30 82 48 36 19 67 37 68
42 2 4 12 7 21 7 10 0 26 9 36 20 9 10 20 19 24 18 11 -3 81 36 81 44 0 5 4 7
9 4 5 -3 20 3 34 14 14 11 30 20 36 20 6 0 11 5 11 11 0 5 5 7 10 4 6 -3 10
-2 10 3 0 5 6 9 13 9 13 1 163 84 185 103 6 6 12 9 12 6 0 -3 31 13 70 35 38
21 72 39 76 39 3 0 17 9 31 20 14 11 29 17 34 14 5 -3 9 -1 9 4 0 5 23 19 52
33 28 13 56 29 62 34 15 14 89 49 99 47 4 -1 7 2 7 6 0 4 22 19 50 33 27 13
50 28 50 32 0 5 5 5 10 2 6 -3 10 -1 10 5 0 6 5 8 10 5 6 -3 10 -1 10 5 0 6 5
8 10 5 6 -3 10 -1 10 5 0 6 4 9 9 5 6 -3 14 3 20 12 6 10 11 14 11 10 0 -5 13
1 29 12 15 11 30 18 33 15 3 -2 11 2 18 11 7 8 18 15 25 15 6 0 22 9 35 20 12
11 26 18 30 15 4 -2 17 5 28 16 12 11 22 17 22 15 0 -3 19 6 43 20 23 13 50
27 60 31 9 3 17 10 17 15 0 5 5 6 10 3 6 -3 10 -1 10 5 0 6 4 9 8 6 5 -3 18 3
29 13 11 11 24 16 29 13 6 -4 9 -216 9 -512 -1 -278 1 -509 3 -514 3 -4 7 -4
11 1 3 5 42 26 86 48 44 22 83 44 87 49 3 5 14 11 24 12 9 2 20 8 24 14 4 7
10 11 14 11 10 -2 70 31 77 41 3 5 8 9 10 9 11 -2 49 12 49 18 0 4 16 13 35
20 19 7 35 17 35 22 0 5 3 8 8 7 10 -3 95 42 103 54 3 5 10 10 15 10 24 2 44
11 44 20 0 5 4 7 9 3 5 -3 12 -1 16 4 5 9 86 54 163 90 17 8 32 19 32 24 0 4
4 6 9 2 5 -3 16 1 23 9 8 7 24 17 36 20 12 4 22 12 22 17 0 5 3 9 8 8 16 -2
52 14 52 24 0 6 3 7 6 4 4 -4 19 2 34 13 15 11 38 24 51 29 l24 9 0 943 c-1
775 -3 953 -15 997 -7 28 -18 52 -22 52 -5 0 -6 5 -3 10 3 6 1 10 -6 10 -7 0
-9 3 -6 6 7 8 -52 94 -65 94 -4 0 -8 7 -8 15 0 8 -4 15 -10 15 -5 0 -19 10
-31 23 -12 12 -18 15 -14 7 5 -8 -3 -5 -16 7 -64 58 -213 92 -314 71z"/>
</g>
</svg>
