<svg width="1440" height="950" viewBox="0 0 1440 950" fill="none" xmlns="http://www.w3.org/2000/svg">
<rect x="1208.48" y="487" width="15" height="15" rx="3" fill="#000000"/>
<rect x="1278.48" y="474" width="24" height="24" rx="3" fill="#000000"/>
<rect x="1183.48" y="441" width="32" height="32" rx="3" fill="#000000"/>
<rect x="1266.48" y="787" width="24" height="24" rx="3" fill="#000000"/>
<rect x="1235.00" y="013" width="24" height="24" rx="3" fill="#000000"/>
<line x1="1247" y1="517" x2="1247" y2="50" stroke="#000000" stroke-width="18"/>
<line x1="1247" y1="860" x2="1247" y2="556" stroke="#000000" stroke-width="18"/>
<path d="M1276.17 823.215C1243.34 825.707 1202.99 770.532 1191.89 787C1188.81 791.572 1150.78 868.171 1150.78 868.171C1143.5 881.13 1146.61 885 1158.63 885H1342.61C1346.77 885 1349.28 879.591 1347.06 875.444L1317.39 817C1316.07 814.54 1311.64 813.132 1309.32 814.121C1298.61 818.689 1287.7 822.332 1276.18 823.215L1276.17 823.215Z" fill="#000000"/>
<line x1="9" y1="919" x2="1431" y2="919" stroke="#000000" stroke-width="18" stroke-linecap="round"/>
<path d="M1121.89 887.867L1129.88 883.736C1129.88 883.724 1129.87 883.712 1129.86 883.7L1121.89 887.867ZM1371.72 888.369L1364.47 883.045C1364.26 883.319 1364.08 883.604 1363.91 883.898L1371.72 888.369ZM1297.4 712.436H1288.4C1288.4 713.82 1288.72 715.185 1289.33 716.425L1297.4 712.436ZM1297.4 536V527C1292.43 527 1288.4 531.029 1288.4 536H1297.4ZM1322.16 545C1327.13 545 1331.16 540.971 1331.16 536C1331.16 531.029 1327.13 527 1322.16 527V545ZM1171.83 527C1166.86 527 1162.83 531.029 1162.83 536C1162.83 540.971 1166.86 545 1171.83 545V527ZM1197.3 712.436L1205.44 716.282C1206.01 715.079 1206.3 713.766 1206.3 712.436H1197.3ZM1121.89 862.733L1113.89 858.605C1113.88 858.616 1113.88 858.626 1113.87 858.637L1121.89 862.733ZM1371.72 862.733L1379.86 858.882C1379.83 858.836 1379.81 858.79 1379.79 858.744L1371.72 862.733ZM1306.4 712.436V536H1288.4V712.436H1306.4ZM1297.4 545H1322.16V527H1297.4V545ZM1322.16 527H1197.3V545H1322.16V527ZM1197.3 527H1171.83V545H1197.3V527ZM1188.3 536V712.436H1206.3V536H1188.3ZM1189.16 708.59C1177.49 733.285 1158.69 770.756 1142.77 802.129C1134.82 817.799 1127.59 831.92 1122.36 842.124C1119.75 847.226 1117.63 851.347 1116.16 854.193C1115.43 855.616 1114.86 856.72 1114.48 857.467C1114.28 857.841 1114.14 858.126 1114.04 858.317C1113.99 858.413 1113.95 858.485 1113.93 858.533C1113.91 858.557 1113.9 858.575 1113.9 858.588C1113.89 858.594 1113.89 858.598 1113.89 858.601C1113.89 858.602 1113.89 858.604 1113.89 858.604C1113.89 858.605 1113.89 858.605 1121.89 862.733C1129.88 866.861 1129.88 866.861 1129.88 866.86C1129.88 866.859 1129.88 866.858 1129.89 866.856C1129.89 866.853 1129.89 866.849 1129.89 866.842C1129.9 866.83 1129.91 866.812 1129.92 866.787C1129.95 866.738 1129.98 866.665 1130.03 866.569C1130.13 866.376 1130.28 866.09 1130.47 865.714C1130.86 864.964 1131.43 863.856 1132.17 862.43C1133.63 859.578 1135.76 855.448 1138.38 850.338C1143.62 840.118 1150.85 825.974 1158.82 810.276C1174.74 778.913 1193.65 741.234 1205.44 716.282L1189.16 708.59ZM1113.87 858.637C1109.48 867.223 1109.55 875.621 1110.58 881.596C1111.1 884.595 1111.88 887.088 1112.54 888.863C1112.87 889.755 1113.18 890.481 1113.42 891.014C1113.54 891.282 1113.64 891.502 1113.73 891.673C1113.77 891.758 1113.8 891.831 1113.84 891.891C1113.85 891.921 1113.86 891.948 1113.88 891.972C1113.88 891.984 1113.89 891.995 1113.89 892.005C1113.9 892.01 1113.9 892.015 1113.9 892.02C1113.9 892.022 1113.9 892.025 1113.9 892.027C1113.91 892.03 1113.91 892.033 1121.89 887.867C1129.86 883.7 1129.86 883.703 1129.87 883.707C1129.87 883.708 1129.87 883.711 1129.87 883.713C1129.87 883.717 1129.87 883.72 1129.88 883.724C1129.88 883.731 1129.88 883.738 1129.89 883.744C1129.89 883.755 1129.9 883.764 1129.9 883.77C1129.91 883.783 1129.91 883.784 1129.9 883.775C1129.89 883.757 1129.86 883.698 1129.82 883.601C1129.73 883.405 1129.58 883.06 1129.41 882.589C1129.05 881.635 1128.61 880.227 1128.32 878.53C1127.73 875.114 1127.8 870.945 1129.9 866.83L1113.87 858.637ZM1121.89 887.867C1113.89 891.998 1113.89 891.999 1113.89 892.001C1113.89 892.002 1113.89 892.003 1113.89 892.005C1113.89 892.008 1113.9 892.011 1113.9 892.014C1113.9 892.021 1113.91 892.03 1113.91 892.04C1113.92 892.06 1113.94 892.086 1113.95 892.118C1113.99 892.182 1114.03 892.27 1114.09 892.379C1114.21 892.598 1114.37 892.906 1114.58 893.288C1115 894.053 1115.61 895.125 1116.37 896.402C1117.88 898.94 1120.06 902.375 1122.69 905.857C1125.28 909.286 1128.53 913.061 1132.23 916.061C1135.76 918.924 1140.81 922 1146.86 922V904C1146.91 904 1145.85 903.934 1143.57 902.085C1141.46 900.372 1139.21 897.864 1137.06 895.01C1134.94 892.209 1133.13 889.36 1131.83 887.185C1131.19 886.107 1130.69 885.215 1130.35 884.605C1130.18 884.3 1130.06 884.068 1129.98 883.918C1129.94 883.844 1129.91 883.79 1129.89 883.759C1129.89 883.744 1129.88 883.734 1129.88 883.73C1129.88 883.728 1129.88 883.727 1129.88 883.728C1129.88 883.729 1129.88 883.73 1129.88 883.731C1129.88 883.731 1129.88 883.733 1129.88 883.733C1129.88 883.734 1129.88 883.736 1121.89 887.867ZM1146.86 922C1147.02 922 1147.19 922 1147.35 922C1147.52 922 1147.69 922 1147.85 922C1148.02 922 1148.18 922 1148.35 922C1148.51 922 1148.68 922 1148.85 922C1149.01 922 1149.18 922 1149.35 922C1149.51 922 1149.68 922 1149.85 922C1150.01 922 1150.18 922 1150.35 922C1150.51 922 1150.68 922 1150.85 922C1151.01 922 1151.18 922 1151.35 922C1151.52 922 1151.68 922 1151.85 922C1152.02 922 1152.19 922 1152.35 922C1152.52 922 1152.69 922 1152.86 922C1153.02 922 1153.19 922 1153.36 922C1153.53 922 1153.7 922 1153.87 922C1154.03 922 1154.2 922 1154.37 922C1154.54 922 1154.71 922 1154.88 922C1155.05 922 1155.21 922 1155.38 922C1155.55 922 1155.72 922 1155.89 922C1156.06 922 1156.23 922 1156.4 922C1156.57 922 1156.74 922 1156.91 922C1157.08 922 1157.25 922 1157.42 922C1157.59 922 1157.76 922 1157.92 922C1158.09 922 1158.26 922 1158.43 922C1158.6 922 1158.78 922 1158.95 922C1159.12 922 1159.29 922 1159.46 922C1159.63 922 1159.8 922 1159.97 922C1160.14 922 1160.31 922 1160.48 922C1160.65 922 1160.82 922 1160.99 922C1161.16 922 1161.33 922 1161.51 922C1161.68 922 1161.85 922 1162.02 922C1162.19 922 1162.36 922 1162.53 922C1162.71 922 1162.88 922 1163.05 922C1163.22 922 1163.39 922 1163.56 922C1163.74 922 1163.91 922 1164.08 922C1164.25 922 1164.42 922 1164.6 922C1164.77 922 1164.94 922 1165.11 922C1165.28 922 1165.46 922 1165.63 922C1165.8 922 1165.97 922 1166.15 922C1166.32 922 1166.49 922 1166.66 922C1166.84 922 1167.01 922 1167.18 922C1167.36 922 1167.53 922 1167.7 922C1167.87 922 1168.05 922 1168.22 922C1168.39 922 1168.57 922 1168.74 922C1168.91 922 1169.09 922 1169.26 922C1169.43 922 1169.61 922 1169.78 922C1169.95 922 1170.13 922 1170.3 922C1170.48 922 1170.65 922 1170.82 922C1171 922 1171.17 922 1171.35 922C1171.52 922 1171.69 922 1171.87 922C1172.04 922 1172.22 922 1172.39 922C1172.56 922 1172.74 922 1172.91 922C1173.09 922 1173.26 922 1173.44 922C1173.61 922 1173.78 922 1173.96 922C1174.13 922 1174.31 922 1174.48 922C1174.66 922 1174.83 922 1175.01 922C1175.18 922 1175.36 922 1175.53 922C1175.71 922 1175.88 922 1176.06 922C1176.23 922 1176.41 922 1176.58 922C1176.76 922 1176.93 922 1177.11 922C1177.28 922 1177.46 922 1177.63 922C1177.81 922 1177.98 922 1178.16 922C1178.34 922 1178.51 922 1178.69 922C1178.86 922 1179.04 922 1179.21 922C1179.39 922 1179.57 922 1179.74 922C1179.92 922 1180.09 922 1180.27 922C1180.44 922 1180.62 922 1180.8 922C1180.97 922 1181.15 922 1181.32 922C1181.5 922 1181.68 922 1181.85 922C1182.03 922 1182.2 922 1182.38 922C1182.56 922 1182.73 922 1182.91 922C1183.09 922 1183.26 922 1183.44 922C1183.61 922 1183.79 922 1183.97 922C1184.14 922 1184.32 922 1184.5 922C1184.67 922 1184.85 922 1185.03 922C1185.2 922 1185.38 922 1185.56 922C1185.73 922 1185.91 922 1186.09 922C1186.26 922 1186.44 922 1186.62 922C1186.79 922 1186.97 922 1187.15 922C1187.32 922 1187.5 922 1187.68 922C1187.85 922 1188.03 922 1188.21 922C1188.39 922 1188.56 922 1188.74 922C1188.92 922 1189.09 922 1189.27 922C1189.45 922 1189.62 922 1189.8 922C1189.98 922 1190.16 922 1190.33 922C1190.51 922 1190.69 922 1190.87 922C1191.04 922 1191.22 922 1191.4 922C1191.57 922 1191.75 922 1191.93 922C1192.11 922 1192.28 922 1192.46 922C1192.64 922 1192.82 922 1192.99 922C1193.17 922 1193.35 922 1193.53 922C1193.7 922 1193.88 922 1194.06 922C1194.24 922 1194.41 922 1194.59 922C1194.77 922 1194.95 922 1195.12 922C1195.3 922 1195.48 922 1195.66 922C1195.83 922 1196.01 922 1196.19 922C1196.37 922 1196.54 922 1196.72 922C1196.9 922 1197.08 922 1197.25 922C1197.43 922 1197.61 922 1197.79 922C1197.97 922 1198.14 922 1198.32 922C1198.5 922 1198.68 922 1198.85 922C1199.03 922 1199.21 922 1199.39 922C1199.56 922 1199.74 922 1199.92 922C1200.1 922 1200.28 922 1200.45 922C1200.63 922 1200.81 922 1200.99 922C1201.16 922 1201.34 922 1201.52 922C1201.7 922 1201.88 922 1202.05 922C1202.23 922 1202.41 922 1202.59 922C1202.76 922 1202.94 922 1203.12 922C1203.3 922 1203.48 922 1203.65 922C1203.83 922 1204.01 922 1204.19 922C1204.36 922 1204.54 922 1204.72 922C1204.9 922 1205.08 922 1205.25 922C1205.43 922 1205.61 922 1205.79 922C1205.96 922 1206.14 922 1206.32 922C1206.5 922 1206.68 922 1206.85 922C1207.03 922 1207.21 922 1207.39 922C1207.56 922 1207.74 922 1207.92 922C1208.1 922 1208.27 922 1208.45 922C1208.63 922 1208.81 922 1208.99 922C1209.16 922 1209.34 922 1209.52 922C1209.7 922 1209.87 922 1210.05 922C1210.23 922 1210.41 922 1210.58 922C1210.76 922 1210.94 922 1211.12 922C1211.29 922 1211.47 922 1211.65 922C1211.83 922 1212 922 1212.18 922C1212.36 922 1212.54 922 1212.71 922C1212.89 922 1213.07 922 1213.25 922C1213.42 922 1213.6 922 1213.78 922C1213.95 922 1214.13 922 1214.31 922C1214.49 922 1214.66 922 1214.84 922C1215.02 922 1215.2 922 1215.37 922C1215.55 922 1215.73 922 1215.9 922C1216.08 922 1216.26 922 1216.44 922C1216.61 922 1216.79 922 1216.97 922C1217.14 922 1217.32 922 1217.5 922C1217.67 922 1217.85 922 1218.03 922C1218.2 922 1218.38 922 1218.56 922C1218.74 922 1218.91 922 1219.09 922C1219.27 922 1219.44 922 1219.62 922C1219.8 922 1219.97 922 1220.15 922C1220.33 922 1220.5 922 1220.68 922C1220.86 922 1221.03 922 1221.21 922C1221.38 922 1221.56 922 1221.74 922C1221.91 922 1222.09 922 1222.27 922C1222.44 922 1222.62 922 1222.8 922C1222.97 922 1223.15 922 1223.32 922C1223.5 922 1223.68 922 1223.85 922C1224.03 922 1224.2 922 1224.38 922C1224.56 922 1224.73 922 1224.91 922C1225.08 922 1225.26 922 1225.44 922C1225.61 922 1225.79 922 1225.96 922C1226.14 922 1226.31 922 1226.49 922C1226.67 922 1226.84 922 1227.02 922C1227.19 922 1227.37 922 1227.54 922C1227.72 922 1227.89 922 1228.07 922C1228.24 922 1228.42 922 1228.6 922C1228.77 922 1228.95 922 1229.12 922C1229.3 922 1229.47 922 1229.65 922C1229.82 922 1230 922 1230.17 922C1230.35 922 1230.52 922 1230.69 922C1230.87 922 1231.04 922 1231.22 922C1231.39 922 1231.57 922 1231.74 922C1231.92 922 1232.09 922 1232.27 922C1232.44 922 1232.61 922 1232.79 922C1232.96 922 1233.14 922 1233.31 922C1233.49 922 1233.66 922 1233.83 922C1234.01 922 1234.18 922 1234.36 922C1234.53 922 1234.7 922 1234.88 922C1235.05 922 1235.23 922 1235.4 922C1235.57 922 1235.75 922 1235.92 922C1236.09 922 1236.27 922 1236.44 922C1236.61 922 1236.79 922 1236.96 922C1237.13 922 1237.31 922 1237.48 922C1237.65 922 1237.83 922 1238 922C1238.17 922 1238.34 922 1238.52 922C1238.69 922 1238.86 922 1239.04 922C1239.21 922 1239.38 922 1239.55 922C1239.73 922 1239.9 922 1240.07 922C1240.24 922 1240.41 922 1240.59 922C1240.76 922 1240.93 922 1241.1 922C1241.28 922 1241.45 922 1241.62 922C1241.79 922 1241.96 922 1242.13 922C1242.31 922 1242.48 922 1242.65 922C1242.82 922 1242.99 922 1243.16 922C1243.34 922 1243.51 922 1243.68 922C1243.85 922 1244.02 922 1244.19 922C1244.36 922 1244.53 922 1244.7 922C1244.87 922 1245.05 922 1245.22 922C1245.39 922 1245.56 922 1245.73 922C1245.9 922 1246.07 922 1246.24 922C1246.41 922 1246.58 922 1246.75 922C1246.92 922 1247.09 922 1247.26 922C1247.43 922 1247.6 922 1247.77 922C1247.94 922 1248.11 922 1248.28 922C1248.45 922 1248.62 922 1248.79 922C1248.96 922 1249.13 922 1249.3 922C1249.47 922 1249.63 922 1249.8 922C1249.97 922 1250.14 922 1250.31 922C1250.48 922 1250.65 922 1250.82 922C1250.99 922 1251.15 922 1251.32 922C1251.49 922 1251.66 922 1251.83 922C1252 922 1252.16 922 1252.33 922C1252.5 922 1252.67 922 1252.84 922C1253 922 1253.17 922 1253.34 922C1253.51 922 1253.67 922 1253.84 922C1254.01 922 1254.18 922 1254.34 922C1254.51 922 1254.68 922 1254.84 922C1255.01 922 1255.18 922 1255.34 922C1255.51 922 1255.68 922 1255.84 922C1256.01 922 1256.18 922 1256.34 922C1256.51 922 1256.68 922 1256.84 922C1257.01 922 1257.17 922 1257.34 922C1257.51 922 1257.67 922 1257.84 922C1258 922 1258.17 922 1258.33 922C1258.5 922 1258.67 922 1258.83 922C1259 922 1259.16 922 1259.33 922C1259.49 922 1259.66 922 1259.82 922C1259.98 922 1260.15 922 1260.31 922C1260.48 922 1260.64 922 1260.81 922C1260.97 922 1261.14 922 1261.3 922C1261.46 922 1261.63 922 1261.79 922C1261.95 922 1262.12 922 1262.28 922C1262.45 922 1262.61 922 1262.77 922C1262.94 922 1263.1 922 1263.26 922C1263.42 922 1263.59 922 1263.75 922C1263.91 922 1264.08 922 1264.24 922C1264.4 922 1264.56 922 1264.72 922C1264.89 922 1265.05 922 1265.21 922C1265.37 922 1265.53 922 1265.7 922C1265.86 922 1266.02 922 1266.18 922C1266.34 922 1266.5 922 1266.67 922C1266.83 922 1266.99 922 1267.15 922C1267.31 922 1267.47 922 1267.63 922C1267.79 922 1267.95 922 1268.11 922C1268.27 922 1268.43 922 1268.59 922C1268.75 922 1268.91 922 1269.07 922C1269.23 922 1269.39 922 1269.55 922C1269.71 922 1269.87 922 1270.03 922C1270.19 922 1270.35 922 1270.51 922C1270.67 922 1270.82 922 1270.98 922C1271.14 922 1271.3 922 1271.46 922C1271.62 922 1271.78 922 1271.93 922C1272.09 922 1272.25 922 1272.41 922C1272.56 922 1272.72 922 1272.88 922C1273.04 922 1273.19 922 1273.35 922C1273.51 922 1273.67 922 1273.82 922C1273.98 922 1274.14 922 1274.29 922C1274.45 922 1274.61 922 1274.76 922C1274.92 922 1275.08 922 1275.23 922C1275.39 922 1275.54 922 1275.7 922C1275.85 922 1276.01 922 1276.17 922C1276.32 922 1276.48 922 1276.63 922C1276.79 922 1276.94 922 1277.1 922C1277.25 922 1277.4 922 1277.56 922C1277.71 922 1277.87 922 1278.02 922C1278.18 922 1278.33 922 1278.48 922C1278.64 922 1278.79 922 1278.94 922C1279.1 922 1279.25 922 1279.4 922C1279.56 922 1279.71 922 1279.86 922C1280.02 922 1280.17 922 1280.32 922C1280.47 922 1280.63 922 1280.78 922C1280.93 922 1281.08 922 1281.23 922C1281.39 922 1281.54 922 1281.69 922C1281.84 922 1281.99 922 1282.14 922C1282.29 922 1282.44 922 1282.6 922C1282.75 922 1282.9 922 1283.05 922C1283.2 922 1283.35 922 1283.5 922C1283.65 922 1283.8 922 1283.95 922C1284.1 922 1284.25 922 1284.4 922C1284.55 922 1284.69 922 1284.84 922C1284.99 922 1285.14 922 1285.29 922C1285.44 922 1285.59 922 1285.74 922C1285.88 922 1286.03 922 1286.18 922C1286.33 922 1286.48 922 1286.62 922C1286.77 922 1286.92 922 1287.07 922C1287.21 922 1287.36 922 1287.51 922C1287.65 922 1287.8 922 1287.95 922C1288.09 922 1288.24 922 1288.39 922C1288.53 922 1288.68 922 1288.82 922C1288.97 922 1289.12 922 1289.26 922C1289.41 922 1289.55 922 1289.7 922C1289.84 922 1289.99 922 1290.13 922C1290.28 922 1290.42 922 1290.56 922C1290.71 922 1290.85 922 1291 922C1291.14 922 1291.28 922 1291.43 922C1291.57 922 1291.71 922 1291.86 922C1292 922 1292.14 922 1292.29 922C1292.43 922 1292.57 922 1292.71 922C1292.86 922 1293 922 1293.14 922C1293.28 922 1293.42 922 1293.57 922C1293.71 922 1293.85 922 1293.99 922C1294.13 922 1294.27 922 1294.41 922C1294.55 922 1294.69 922 1294.83 922C1294.97 922 1295.11 922 1295.25 922C1295.39 922 1295.53 922 1295.67 922C1295.81 922 1295.95 922 1296.09 922C1296.23 922 1296.37 922 1296.51 922C1296.65 922 1296.79 922 1296.92 922C1297.06 922 1297.2 922 1297.34 922C1297.48 922 1297.61 922 1297.75 922C1297.89 922 1298.03 922 1298.16 922C1298.3 922 1298.44 922 1298.57 922C1298.71 922 1298.85 922 1298.98 922C1299.12 922 1299.25 922 1299.39 922C1299.53 922 1299.66 922 1299.8 922C1299.93 922 1300.07 922 1300.2 922C1300.34 922 1300.47 922 1300.61 922C1300.74 922 1300.88 922 1301.01 922C1301.14 922 1301.28 922 1301.41 922C1301.54 922 1301.68 922 1301.81 922C1301.94 922 1302.08 922 1302.21 922C1302.34 922 1302.48 922 1302.61 922C1302.74 922 1302.87 922 1303 922C1303.14 922 1303.27 922 1303.4 922C1303.53 922 1303.66 922 1303.79 922C1303.92 922 1304.05 922 1304.18 922C1304.31 922 1304.45 922 1304.58 922C1304.71 922 1304.84 922 1304.96 922C1305.09 922 1305.22 922 1305.35 922C1305.48 922 1305.61 922 1305.74 922C1305.87 922 1306 922 1306.12 922C1306.25 922 1306.38 922 1306.51 922C1306.64 922 1306.76 922 1306.89 922C1307.02 922 1307.15 922 1307.27 922C1307.4 922 1307.53 922 1307.65 922C1307.78 922 1307.9 922 1308.03 922C1308.16 922 1308.28 922 1308.41 922C1308.53 922 1308.66 922 1308.78 922C1308.91 922 1309.03 922 1309.16 922C1309.28 922 1309.4 922 1309.53 922C1309.65 922 1309.78 922 1309.9 922C1310.02 922 1310.15 922 1310.27 922C1310.39 922 1310.52 922 1310.64 922C1310.76 922 1310.88 922 1311 922C1311.13 922 1311.25 922 1311.37 922C1311.49 922 1311.61 922 1311.73 922C1311.85 922 1311.98 922 1312.1 922C1312.22 922 1312.34 922 1312.46 922C1312.58 922 1312.7 922 1312.82 922C1312.94 922 1313.05 922 1313.17 922C1313.29 922 1313.41 922 1313.53 922C1313.65 922 1313.77 922 1313.88 922C1314 922 1314.12 922 1314.24 922C1314.35 922 1314.47 922 1314.59 922C1314.71 922 1314.82 922 1314.94 922C1315.06 922 1315.17 922 1315.29 922C1315.4 922 1315.52 922 1315.63 922C1315.75 922 1315.87 922 1315.98 922C1316.1 922 1316.21 922 1316.32 922C1316.44 922 1316.55 922 1316.67 922C1316.78 922 1316.89 922 1317.01 922C1317.12 922 1317.23 922 1317.35 922C1317.46 922 1317.57 922 1317.68 922C1317.8 922 1317.91 922 1318.02 922C1318.13 922 1318.24 922 1318.35 922C1318.47 922 1318.58 922 1318.69 922C1318.8 922 1318.91 922 1319.02 922C1319.13 922 1319.24 922 1319.35 922C1319.46 922 1319.57 922 1319.68 922C1319.78 922 1319.89 922 1320 922C1320.11 922 1320.22 922 1320.33 922C1320.43 922 1320.54 922 1320.65 922C1320.76 922 1320.86 922 1320.97 922C1321.08 922 1321.18 922 1321.29 922C1321.4 922 1321.5 922 1321.61 922C1321.71 922 1321.82 922 1321.92 922C1322.03 922 1322.13 922 1322.24 922C1322.34 922 1322.45 922 1322.55 922C1322.65 922 1322.76 922 1322.86 922C1322.97 922 1323.07 922 1323.17 922C1323.27 922 1323.38 922 1323.48 922C1323.58 922 1323.68 922 1323.79 922C1323.89 922 1323.99 922 1324.09 922C1324.19 922 1324.29 922 1324.39 922C1324.49 922 1324.59 922 1324.69 922C1324.79 922 1324.89 922 1324.99 922C1325.09 922 1325.19 922 1325.29 922C1325.39 922 1325.49 922 1325.58 922C1325.68 922 1325.78 922 1325.88 922C1325.98 922 1326.07 922 1326.17 922C1326.27 922 1326.36 922 1326.46 922C1326.56 922 1326.65 922 1326.75 922C1326.85 922 1326.94 922 1327.04 922C1327.13 922 1327.23 922 1327.32 922C1327.42 922 1327.51 922 1327.6 922C1327.7 922 1327.79 922 1327.89 922C1327.98 922 1328.07 922 1328.16 922C1328.26 922 1328.35 922 1328.44 922C1328.53 922 1328.63 922 1328.72 922C1328.81 922 1328.9 922 1328.99 922C1329.08 922 1329.17 922 1329.26 922C1329.35 922 1329.45 922 1329.53 922C1329.62 922 1329.71 922 1329.8 922C1329.89 922 1329.98 922 1330.07 922C1330.16 922 1330.25 922 1330.33 922C1330.42 922 1330.51 922 1330.6 922C1330.68 922 1330.77 922 1330.86 922C1330.95 922 1331.03 922 1331.12 922C1331.2 922 1331.29 922 1331.37 922C1331.46 922 1331.55 922 1331.63 922C1331.71 922 1331.8 922 1331.88 922C1331.97 922 1332.05 922 1332.13 922C1332.22 922 1332.3 922 1332.38 922C1332.47 922 1332.55 922 1332.63 922C1332.71 922 1332.8 922 1332.88 922C1332.96 922 1333.04 922 1333.12 922C1333.2 922 1333.28 922 1333.36 922C1333.44 922 1333.52 922 1333.6 922C1333.68 922 1333.76 922 1333.84 922C1333.92 922 1334 922 1334.08 922C1334.16 922 1334.23 922 1334.31 922C1334.39 922 1334.47 922 1334.54 922C1334.62 922 1334.7 922 1334.77 922C1334.85 922 1334.93 922 1335 922C1335.08 922 1335.15 922 1335.23 922C1335.3 922 1335.38 922 1335.45 922C1335.53 922 1335.6 922 1335.67 922C1335.75 922 1335.82 922 1335.89 922C1335.97 922 1336.04 922 1336.11 922C1336.18 922 1336.25 922 1336.33 922C1336.4 922 1336.47 922 1336.54 922C1336.61 922 1336.68 922 1336.75 922C1336.82 922 1336.89 922 1336.96 922C1337.03 922 1337.1 922 1337.17 922C1337.24 922 1337.31 922 1337.38 922C1337.44 922 1337.51 922 1337.58 922C1337.65 922 1337.71 922 1337.78 922C1337.85 922 1337.91 922 1337.98 922C1338.05 922 1338.11 922 1338.18 922C1338.24 922 1338.31 922 1338.37 922C1338.44 922 1338.5 922 1338.57 922C1338.63 922 1338.69 922 1338.76 922C1338.82 922 1338.88 922 1338.95 922C1339.01 922 1339.07 922 1339.13 922C1339.19 922 1339.26 922 1339.32 922C1339.38 922 1339.44 922 1339.5 922C1339.56 922 1339.62 922 1339.68 922C1339.74 922 1339.8 922 1339.86 922C1339.92 922 1339.98 922 1340.03 922C1340.09 922 1340.15 922 1340.21 922C1340.27 922 1340.32 922 1340.38 922C1340.44 922 1340.49 922 1340.55 922C1340.61 922 1340.66 922 1340.72 922C1340.77 922 1340.83 922 1340.88 922C1340.94 922 1340.99 922 1341.05 922C1341.1 922 1341.15 922 1341.21 922C1341.26 922 1341.31 922 1341.37 922C1341.42 922 1341.47 922 1341.52 922C1341.57 922 1341.63 922 1341.68 922C1341.73 922 1341.78 922 1341.83 922C1341.88 922 1341.93 922 1341.98 922C1342.03 922 1342.08 922 1342.13 922C1342.17 922 1342.22 922 1342.27 922C1342.32 922 1342.37 922 1342.41 922C1342.46 922 1342.51 922 1342.55 922C1342.6 922 1342.65 922 1342.69 922C1342.74 922 1342.78 922 1342.83 922C1342.87 922 1342.92 922 1342.96 922C1343.01 922 1343.05 922 1343.09 922C1343.14 922 1343.18 922 1343.22 922C1343.27 922 1343.31 922 1343.35 922C1343.39 922 1343.43 922 1343.48 922C1343.52 922 1343.56 922 1343.6 922C1343.64 922 1343.68 922 1343.72 922C1343.76 922 1343.8 922 1343.84 922C1343.88 922 1343.91 922 1343.95 922C1343.99 922 1344.03 922 1344.07 922C1344.1 922 1344.14 922 1344.18 922C1344.21 922 1344.25 922 1344.28 922C1344.32 922 1344.36 922 1344.39 922C1344.43 922 1344.46 922 1344.49 922C1344.53 922 1344.56 922 1344.6 922C1344.63 922 1344.66 922 1344.69 922C1344.73 922 1344.76 922 1344.79 922C1344.82 922 1344.85 922 1344.89 922C1344.92 922 1344.95 922 1344.98 922C1345.01 922 1345.04 922 1345.07 922C1345.1 922 1345.13 922 1345.15 922C1345.18 922 1345.21 922 1345.24 922C1345.27 922 1345.29 922 1345.32 922C1345.35 922 1345.37 922 1345.4 922C1345.43 922 1345.45 922 1345.48 922C1345.5 922 1345.53 922 1345.55 922C1345.58 922 1345.6 922 1345.63 922C1345.65 922 1345.67 922 1345.7 922C1345.72 922 1345.74 922 1345.76 922C1345.79 922 1345.81 922 1345.83 922C1345.85 922 1345.87 922 1345.89 922C1345.91 922 1345.93 922 1345.95 922C1345.97 922 1345.99 922 1346.01 922C1346.03 922 1346.05 922 1346.06 922C1346.08 922 1346.1 922 1346.12 922C1346.13 922 1346.15 922 1346.17 922C1346.18 922 1346.2 922 1346.21 922C1346.23 922 1346.24 922 1346.26 922C1346.27 922 1346.29 922 1346.3 922C1346.32 922 1346.33 922 1346.34 922C1346.35 922 1346.37 922 1346.38 922C1346.39 922 1346.4 922 1346.41 922C1346.43 922 1346.44 922 1346.45 922C1346.46 922 1346.47 922 1346.48 922C1346.49 922 1346.5 922 1346.5 922C1346.51 922 1346.52 922 1346.53 922C1346.54 922 1346.54 922 1346.55 922C1346.56 922 1346.56 922 1346.57 922C1346.58 922 1346.58 922 1346.59 922C1346.59 922 1346.6 922 1346.6 922C1346.61 922 1346.61 922 1346.61 922C1346.62 922 1346.62 922 1346.62 922C1346.63 922 1346.63 922 1346.63 922C1346.63 922 1346.63 922 1346.63 922C1346.63 922 1346.63 922 1346.63 913C1346.63 904 1346.63 904 1346.63 904C1346.63 904 1346.63 904 1346.63 904C1346.63 904 1346.63 904 1346.62 904C1346.62 904 1346.62 904 1346.61 904C1346.61 904 1346.61 904 1346.6 904C1346.6 904 1346.59 904 1346.59 904C1346.58 904 1346.58 904 1346.57 904C1346.56 904 1346.56 904 1346.55 904C1346.54 904 1346.54 904 1346.53 904C1346.52 904 1346.51 904 1346.5 904C1346.5 904 1346.49 904 1346.48 904C1346.47 904 1346.46 904 1346.45 904C1346.44 904 1346.43 904 1346.41 904C1346.4 904 1346.39 904 1346.38 904C1346.37 904 1346.35 904 1346.34 904C1346.33 904 1346.32 904 1346.3 904C1346.29 904 1346.27 904 1346.26 904C1346.24 904 1346.23 904 1346.21 904C1346.2 904 1346.18 904 1346.17 904C1346.15 904 1346.13 904 1346.12 904C1346.1 904 1346.08 904 1346.06 904C1346.05 904 1346.03 904 1346.01 904C1345.99 904 1345.97 904 1345.95 904C1345.93 904 1345.91 904 1345.89 904C1345.87 904 1345.85 904 1345.83 904C1345.81 904 1345.79 904 1345.76 904C1345.74 904 1345.72 904 1345.7 904C1345.67 904 1345.65 904 1345.63 904C1345.6 904 1345.58 904 1345.55 904C1345.53 904 1345.5 904 1345.48 904C1345.45 904 1345.43 904 1345.4 904C1345.37 904 1345.35 904 1345.32 904C1345.29 904 1345.27 904 1345.24 904C1345.21 904 1345.18 904 1345.15 904C1345.13 904 1345.1 904 1345.07 904C1345.04 904 1345.01 904 1344.98 904C1344.95 904 1344.92 904 1344.89 904C1344.85 904 1344.82 904 1344.79 904C1344.76 904 1344.73 904 1344.69 904C1344.66 904 1344.63 904 1344.6 904C1344.56 904 1344.53 904 1344.49 904C1344.46 904 1344.43 904 1344.39 904C1344.36 904 1344.32 904 1344.28 904C1344.25 904 1344.21 904 1344.18 904C1344.14 904 1344.1 904 1344.07 904C1344.03 904 1343.99 904 1343.95 904C1343.91 904 1343.88 904 1343.84 904C1343.8 904 1343.76 904 1343.72 904C1343.68 904 1343.64 904 1343.6 904C1343.56 904 1343.52 904 1343.48 904C1343.43 904 1343.39 904 1343.35 904C1343.31 904 1343.27 904 1343.22 904C1343.18 904 1343.14 904 1343.09 904C1343.05 904 1343.01 904 1342.96 904C1342.92 904 1342.87 904 1342.83 904C1342.78 904 1342.74 904 1342.69 904C1342.65 904 1342.6 904 1342.55 904C1342.51 904 1342.46 904 1342.41 904C1342.37 904 1342.32 904 1342.27 904C1342.22 904 1342.17 904 1342.13 904C1342.08 904 1342.03 904 1341.98 904C1341.93 904 1341.88 904 1341.83 904C1341.78 904 1341.73 904 1341.68 904C1341.63 904 1341.57 904 1341.52 904C1341.47 904 1341.42 904 1341.37 904C1341.31 904 1341.26 904 1341.21 904C1341.15 904 1341.1 904 1341.05 904C1340.99 904 1340.94 904 1340.88 904C1340.83 904 1340.77 904 1340.72 904C1340.66 904 1340.61 904 1340.55 904C1340.49 904 1340.44 904 1340.38 904C1340.32 904 1340.27 904 1340.21 904C1340.15 904 1340.09 904 1340.03 904C1339.98 904 1339.92 904 1339.86 904C1339.8 904 1339.74 904 1339.68 904C1339.62 904 1339.56 904 1339.5 904C1339.44 904 1339.38 904 1339.32 904C1339.26 904 1339.19 904 1339.13 904C1339.07 904 1339.01 904 1338.95 904C1338.88 904 1338.82 904 1338.76 904C1338.69 904 1338.63 904 1338.57 904C1338.5 904 1338.44 904 1338.37 904C1338.31 904 1338.24 904 1338.18 904C1338.11 904 1338.05 904 1337.98 904C1337.91 904 1337.85 904 1337.78 904C1337.71 904 1337.65 904 1337.58 904C1337.51 904 1337.44 904 1337.38 904C1337.31 904 1337.24 904 1337.17 904C1337.1 904 1337.03 904 1336.96 904C1336.89 904 1336.82 904 1336.75 904C1336.68 904 1336.61 904 1336.54 904C1336.47 904 1336.4 904 1336.33 904C1336.25 904 1336.18 904 1336.11 904C1336.04 904 1335.97 904 1335.89 904C1335.82 904 1335.75 904 1335.67 904C1335.6 904 1335.53 904 1335.45 904C1335.38 904 1335.3 904 1335.23 904C1335.15 904 1335.08 904 1335 904C1334.93 904 1334.85 904 1334.77 904C1334.7 904 1334.62 904 1334.54 904C1334.47 904 1334.39 904 1334.31 904C1334.23 904 1334.16 904 1334.08 904C1334 904 1333.92 904 1333.84 904C1333.76 904 1333.68 904 1333.6 904C1333.52 904 1333.44 904 1333.36 904C1333.28 904 1333.2 904 1333.12 904C1333.04 904 1332.96 904 1332.88 904C1332.8 904 1332.71 904 1332.63 904C1332.55 904 1332.47 904 1332.38 904C1332.3 904 1332.22 904 1332.13 904C1332.05 904 1331.97 904 1331.88 904C1331.8 904 1331.71 904 1331.63 904C1331.55 904 1331.46 904 1331.37 904C1331.29 904 1331.2 904 1331.12 904C1331.03 904 1330.95 904 1330.86 904C1330.77 904 1330.68 904 1330.6 904C1330.51 904 1330.42 904 1330.33 904C1330.25 904 1330.16 904 1330.07 904C1329.98 904 1329.89 904 1329.8 904C1329.71 904 1329.62 904 1329.53 904C1329.45 904 1329.35 904 1329.26 904C1329.17 904 1329.08 904 1328.99 904C1328.9 904 1328.81 904 1328.72 904C1328.63 904 1328.53 904 1328.44 904C1328.35 904 1328.26 904 1328.16 904C1328.07 904 1327.98 904 1327.89 904C1327.79 904 1327.7 904 1327.6 904C1327.51 904 1327.42 904 1327.32 904C1327.23 904 1327.13 904 1327.04 904C1326.94 904 1326.85 904 1326.75 904C1326.65 904 1326.56 904 1326.46 904C1326.36 904 1326.27 904 1326.17 904C1326.07 904 1325.98 904 1325.88 904C1325.78 904 1325.68 904 1325.58 904C1325.49 904 1325.39 904 1325.29 904C1325.19 904 1325.09 904 1324.99 904C1324.89 904 1324.79 904 1324.69 904C1324.59 904 1324.49 904 1324.39 904C1324.29 904 1324.19 904 1324.09 904C1323.99 904 1323.89 904 1323.79 904C1323.68 904 1323.58 904 1323.48 904C1323.38 904 1323.27 904 1323.17 904C1323.07 904 1322.97 904 1322.86 904C1322.76 904 1322.65 904 1322.55 904C1322.45 904 1322.34 904 1322.24 904C1322.13 904 1322.03 904 1321.92 904C1321.82 904 1321.71 904 1321.61 904C1321.5 904 1321.4 904 1321.29 904C1321.18 904 1321.08 904 1320.97 904C1320.86 904 1320.76 904 1320.65 904C1320.54 904 1320.43 904 1320.33 904C1320.22 904 1320.11 904 1320 904C1319.89 904 1319.78 904 1319.68 904C1319.57 904 1319.46 904 1319.35 904C1319.24 904 1319.13 904 1319.02 904C1318.91 904 1318.8 904 1318.69 904C1318.58 904 1318.47 904 1318.35 904C1318.24 904 1318.13 904 1318.02 904C1317.91 904 1317.8 904 1317.68 904C1317.57 904 1317.46 904 1317.35 904C1317.23 904 1317.12 904 1317.01 904C1316.89 904 1316.78 904 1316.67 904C1316.55 904 1316.44 904 1316.32 904C1316.21 904 1316.1 904 1315.98 904C1315.87 904 1315.75 904 1315.63 904C1315.52 904 1315.4 904 1315.29 904C1315.17 904 1315.06 904 1314.94 904C1314.82 904 1314.71 904 1314.59 904C1314.47 904 1314.35 904 1314.24 904C1314.12 904 1314 904 1313.88 904C1313.77 904 1313.65 904 1313.53 904C1313.41 904 1313.29 904 1313.17 904C1313.05 904 1312.94 904 1312.82 904C1312.7 904 1312.58 904 1312.46 904C1312.34 904 1312.22 904 1312.1 904C1311.98 904 1311.85 904 1311.73 904C1311.61 904 1311.49 904 1311.37 904C1311.25 904 1311.13 904 1311 904C1310.88 904 1310.76 904 1310.64 904C1310.52 904 1310.39 904 1310.27 904C1310.15 904 1310.02 904 1309.9 904C1309.78 904 1309.65 904 1309.53 904C1309.4 904 1309.28 904 1309.16 904C1309.03 904 1308.91 904 1308.78 904C1308.66 904 1308.53 904 1308.41 904C1308.28 904 1308.16 904 1308.03 904C1307.9 904 1307.78 904 1307.65 904C1307.53 904 1307.4 904 1307.27 904C1307.15 904 1307.02 904 1306.89 904C1306.76 904 1306.64 904 1306.51 904C1306.38 904 1306.25 904 1306.12 904C1306 904 1305.87 904 1305.74 904C1305.61 904 1305.48 904 1305.35 904C1305.22 904 1305.09 904 1304.96 904C1304.84 904 1304.71 904 1304.58 904C1304.45 904 1304.31 904 1304.18 904C1304.05 904 1303.92 904 1303.79 904C1303.66 904 1303.53 904 1303.4 904C1303.27 904 1303.14 904 1303 904C1302.87 904 1302.74 904 1302.61 904C1302.48 904 1302.34 904 1302.21 904C1302.08 904 1301.94 904 1301.81 904C1301.68 904 1301.54 904 1301.41 904C1301.28 904 1301.14 904 1301.01 904C1300.88 904 1300.74 904 1300.61 904C1300.47 904 1300.34 904 1300.2 904C1300.07 904 1299.93 904 1299.8 904C1299.66 904 1299.53 904 1299.39 904C1299.25 904 1299.12 904 1298.98 904C1298.85 904 1298.71 904 1298.57 904C1298.44 904 1298.3 904 1298.16 904C1298.03 904 1297.89 904 1297.75 904C1297.61 904 1297.48 904 1297.34 904C1297.2 904 1297.06 904 1296.92 904C1296.79 904 1296.65 904 1296.51 904C1296.37 904 1296.23 904 1296.09 904C1295.95 904 1295.81 904 1295.67 904C1295.53 904 1295.39 904 1295.25 904C1295.11 904 1294.97 904 1294.83 904C1294.69 904 1294.55 904 1294.41 904C1294.27 904 1294.13 904 1293.99 904C1293.85 904 1293.71 904 1293.57 904C1293.42 904 1293.28 904 1293.14 904C1293 904 1292.86 904 1292.71 904C1292.57 904 1292.43 904 1292.29 904C1292.14 904 1292 904 1291.86 904C1291.71 904 1291.57 904 1291.43 904C1291.28 904 1291.14 904 1291 904C1290.85 904 1290.71 904 1290.56 904C1290.42 904 1290.28 904 1290.13 904C1289.99 904 1289.84 904 1289.7 904C1289.55 904 1289.41 904 1289.26 904C1289.12 904 1288.97 904 1288.82 904C1288.68 904 1288.53 904 1288.39 904C1288.24 904 1288.09 904 1287.95 904C1287.8 904 1287.65 904 1287.51 904C1287.36 904 1287.21 904 1287.07 904C1286.92 904 1286.77 904 1286.62 904C1286.48 904 1286.33 904 1286.18 904C1286.03 904 1285.88 904 1285.74 904C1285.59 904 1285.44 904 1285.29 904C1285.14 904 1284.99 904 1284.84 904C1284.69 904 1284.55 904 1284.4 904C1284.25 904 1284.1 904 1283.95 904C1283.8 904 1283.65 904 1283.5 904C1283.35 904 1283.2 904 1283.05 904C1282.9 904 1282.75 904 1282.6 904C1282.44 904 1282.29 904 1282.14 904C1281.99 904 1281.84 904 1281.69 904C1281.54 904 1281.39 904 1281.23 904C1281.08 904 1280.93 904 1280.78 904C1280.63 904 1280.47 904 1280.32 904C1280.17 904 1280.02 904 1279.86 904C1279.71 904 1279.56 904 1279.4 904C1279.25 904 1279.1 904 1278.94 904C1278.79 904 1278.64 904 1278.48 904C1278.33 904 1278.18 904 1278.02 904C1277.87 904 1277.71 904 1277.56 904C1277.4 904 1277.25 904 1277.1 904C1276.94 904 1276.79 904 1276.63 904C1276.48 904 1276.32 904 1276.17 904C1276.01 904 1275.85 904 1275.7 904C1275.54 904 1275.39 904 1275.23 904C1275.08 904 1274.92 904 1274.76 904C1274.61 904 1274.45 904 1274.29 904C1274.14 904 1273.98 904 1273.82 904C1273.67 904 1273.51 904 1273.35 904C1273.19 904 1273.04 904 1272.88 904C1272.72 904 1272.56 904 1272.41 904C1272.25 904 1272.09 904 1271.93 904C1271.78 904 1271.62 904 1271.46 904C1271.3 904 1271.14 904 1270.98 904C1270.82 904 1270.67 904 1270.51 904C1270.35 904 1270.19 904 1270.03 904C1269.87 904 1269.71 904 1269.55 904C1269.39 904 1269.23 904 1269.07 904C1268.91 904 1268.75 904 1268.59 904C1268.43 904 1268.27 904 1268.11 904C1267.95 904 1267.79 904 1267.63 904C1267.47 904 1267.31 904 1267.15 904C1266.99 904 1266.83 904 1266.67 904C1266.5 904 1266.34 904 1266.18 904C1266.02 904 1265.86 904 1265.7 904C1265.53 904 1265.37 904 1265.21 904C1265.05 904 1264.89 904 1264.72 904C1264.56 904 1264.4 904 1264.24 904C1264.08 904 1263.91 904 1263.75 904C1263.59 904 1263.42 904 1263.26 904C1263.1 904 1262.94 904 1262.77 904C1262.61 904 1262.45 904 1262.28 904C1262.12 904 1261.95 904 1261.79 904C1261.63 904 1261.46 904 1261.3 904C1261.14 904 1260.97 904 1260.81 904C1260.64 904 1260.48 904 1260.31 904C1260.15 904 1259.98 904 1259.82 904C1259.66 904 1259.49 904 1259.33 904C1259.16 904 1259 904 1258.83 904C1258.67 904 1258.5 904 1258.33 904C1258.17 904 1258 904 1257.84 904C1257.67 904 1257.51 904 1257.34 904C1257.17 904 1257.01 904 1256.84 904C1256.68 904 1256.51 904 1256.34 904C1256.18 904 1256.01 904 1255.84 904C1255.68 904 1255.51 904 1255.34 904C1255.18 904 1255.01 904 1254.84 904C1254.68 904 1254.51 904 1254.34 904C1254.18 904 1254.01 904 1253.84 904C1253.67 904 1253.51 904 1253.34 904C1253.17 904 1253 904 1252.84 904C1252.67 904 1252.5 904 1252.33 904C1252.16 904 1252 904 1251.83 904C1251.66 904 1251.49 904 1251.32 904C1251.15 904 1250.99 904 1250.82 904C1250.65 904 1250.48 904 1250.31 904C1250.14 904 1249.97 904 1249.8 904C1249.63 904 1249.47 904 1249.3 904C1249.13 904 1248.96 904 1248.79 904C1248.62 904 1248.45 904 1248.28 904C1248.11 904 1247.94 904 1247.77 904C1247.6 904 1247.43 904 1247.26 904C1247.09 904 1246.92 904 1246.75 904C1246.58 904 1246.41 904 1246.24 904C1246.07 904 1245.9 904 1245.73 904C1245.56 904 1245.39 904 1245.22 904C1245.05 904 1244.87 904 1244.7 904C1244.53 904 1244.36 904 1244.19 904C1244.02 904 1243.85 904 1243.68 904C1243.51 904 1243.34 904 1243.16 904C1242.99 904 1242.82 904 1242.65 904C1242.48 904 1242.31 904 1242.13 904C1241.96 904 1241.79 904 1241.62 904C1241.45 904 1241.28 904 1241.1 904C1240.93 904 1240.76 904 1240.59 904C1240.41 904 1240.24 904 1240.07 904C1239.9 904 1239.73 904 1239.55 904C1239.38 904 1239.21 904 1239.04 904C1238.86 904 1238.69 904 1238.52 904C1238.34 904 1238.17 904 1238 904C1237.83 904 1237.65 904 1237.48 904C1237.31 904 1237.13 904 1236.96 904C1236.79 904 1236.61 904 1236.44 904C1236.27 904 1236.09 904 1235.92 904C1235.75 904 1235.57 904 1235.4 904C1235.23 904 1235.05 904 1234.88 904C1234.7 904 1234.53 904 1234.36 904C1234.18 904 1234.01 904 1233.83 904C1233.66 904 1233.49 904 1233.31 904C1233.14 904 1232.96 904 1232.79 904C1232.61 904 1232.44 904 1232.27 904C1232.09 904 1231.92 904 1231.74 904C1231.57 904 1231.39 904 1231.22 904C1231.04 904 1230.87 904 1230.69 904C1230.52 904 1230.35 904 1230.17 904C1230 904 1229.82 904 1229.65 904C1229.47 904 1229.3 904 1229.12 904C1228.95 904 1228.77 904 1228.6 904C1228.42 904 1228.24 904 1228.07 904C1227.89 904 1227.72 904 1227.54 904C1227.37 904 1227.19 904 1227.02 904C1226.84 904 1226.67 904 1226.49 904C1226.31 904 1226.14 904 1225.96 904C1225.79 904 1225.61 904 1225.44 904C1225.26 904 1225.08 904 1224.91 904C1224.73 904 1224.56 904 1224.38 904C1224.2 904 1224.03 904 1223.85 904C1223.68 904 1223.5 904 1223.32 904C1223.15 904 1222.97 904 1222.8 904C1222.62 904 1222.44 904 1222.27 904C1222.09 904 1221.91 904 1221.74 904C1221.56 904 1221.38 904 1221.21 904C1221.03 904 1220.86 904 1220.68 904C1220.5 904 1220.33 904 1220.15 904C1219.97 904 1219.8 904 1219.62 904C1219.44 904 1219.27 904 1219.09 904C1218.91 904 1218.74 904 1218.56 904C1218.38 904 1218.2 904 1218.03 904C1217.85 904 1217.67 904 1217.5 904C1217.32 904 1217.14 904 1216.97 904C1216.79 904 1216.61 904 1216.44 904C1216.26 904 1216.08 904 1215.9 904C1215.73 904 1215.55 904 1215.37 904C1215.2 904 1215.02 904 1214.84 904C1214.66 904 1214.49 904 1214.31 904C1214.13 904 1213.95 904 1213.78 904C1213.6 904 1213.42 904 1213.25 904C1213.07 904 1212.89 904 1212.71 904C1212.54 904 1212.36 904 1212.18 904C1212 904 1211.83 904 1211.65 904C1211.47 904 1211.29 904 1211.12 904C1210.94 904 1210.76 904 1210.58 904C1210.41 904 1210.23 904 1210.05 904C1209.87 904 1209.7 904 1209.52 904C1209.34 904 1209.16 904 1208.99 904C1208.81 904 1208.63 904 1208.45 904C1208.27 904 1208.1 904 1207.92 904C1207.74 904 1207.56 904 1207.39 904C1207.21 904 1207.03 904 1206.85 904C1206.68 904 1206.5 904 1206.32 904C1206.14 904 1205.96 904 1205.79 904C1205.61 904 1205.43 904 1205.25 904C1205.08 904 1204.9 904 1204.72 904C1204.54 904 1204.36 904 1204.19 904C1204.01 904 1203.83 904 1203.65 904C1203.48 904 1203.3 904 1203.12 904C1202.94 904 1202.76 904 1202.59 904C1202.41 904 1202.23 904 1202.05 904C1201.88 904 1201.7 904 1201.52 904C1201.34 904 1201.16 904 1200.99 904C1200.81 904 1200.63 904 1200.45 904C1200.28 904 1200.1 904 1199.92 904C1199.74 904 1199.56 904 1199.39 904C1199.21 904 1199.03 904 1198.85 904C1198.68 904 1198.5 904 1198.32 904C1198.14 904 1197.97 904 1197.79 904C1197.61 904 1197.43 904 1197.25 904C1197.08 904 1196.9 904 1196.72 904C1196.54 904 1196.37 904 1196.19 904C1196.01 904 1195.83 904 1195.66 904C1195.48 904 1195.3 904 1195.12 904C1194.95 904 1194.77 904 1194.59 904C1194.41 904 1194.24 904 1194.06 904C1193.88 904 1193.7 904 1193.53 904C1193.35 904 1193.17 904 1192.99 904C1192.82 904 1192.64 904 1192.46 904C1192.28 904 1192.11 904 1191.93 904C1191.75 904 1191.57 904 1191.4 904C1191.22 904 1191.04 904 1190.87 904C1190.69 904 1190.51 904 1190.33 904C1190.16 904 1189.98 904 1189.8 904C1189.62 904 1189.45 904 1189.27 904C1189.09 904 1188.92 904 1188.74 904C1188.56 904 1188.39 904 1188.21 904C1188.03 904 1187.85 904 1187.68 904C1187.5 904 1187.32 904 1187.15 904C1186.97 904 1186.79 904 1186.62 904C1186.44 904 1186.26 904 1186.09 904C1185.91 904 1185.73 904 1185.56 904C1185.38 904 1185.2 904 1185.03 904C1184.85 904 1184.67 904 1184.5 904C1184.32 904 1184.14 904 1183.97 904C1183.79 904 1183.61 904 1183.44 904C1183.26 904 1183.09 904 1182.91 904C1182.73 904 1182.56 904 1182.38 904C1182.2 904 1182.03 904 1181.85 904C1181.68 904 1181.5 904 1181.32 904C1181.15 904 1180.97 904 1180.8 904C1180.62 904 1180.44 904 1180.27 904C1180.09 904 1179.92 904 1179.74 904C1179.57 904 1179.39 904 1179.21 904C1179.04 904 1178.86 904 1178.69 904C1178.51 904 1178.34 904 1178.16 904C1177.98 904 1177.81 904 1177.63 904C1177.46 904 1177.28 904 1177.11 904C1176.93 904 1176.76 904 1176.58 904C1176.41 904 1176.23 904 1176.06 904C1175.88 904 1175.71 904 1175.53 904C1175.36 904 1175.18 904 1175.01 904C1174.83 904 1174.66 904 1174.48 904C1174.31 904 1174.13 904 1173.96 904C1173.78 904 1173.61 904 1173.44 904C1173.26 904 1173.09 904 1172.91 904C1172.74 904 1172.56 904 1172.39 904C1172.22 904 1172.04 904 1171.87 904C1171.69 904 1171.52 904 1171.35 904C1171.17 904 1171 904 1170.82 904C1170.65 904 1170.48 904 1170.3 904C1170.13 904 1169.95 904 1169.78 904C1169.61 904 1169.43 904 1169.26 904C1169.09 904 1168.91 904 1168.74 904C1168.57 904 1168.39 904 1168.22 904C1168.05 904 1167.87 904 1167.7 904C1167.53 904 1167.36 904 1167.18 904C1167.01 904 1166.84 904 1166.66 904C1166.49 904 1166.32 904 1166.15 904C1165.97 904 1165.8 904 1165.63 904C1165.46 904 1165.28 904 1165.11 904C1164.94 904 1164.77 904 1164.6 904C1164.42 904 1164.25 904 1164.08 904C1163.91 904 1163.74 904 1163.56 904C1163.39 904 1163.22 904 1163.05 904C1162.88 904 1162.71 904 1162.53 904C1162.36 904 1162.19 904 1162.02 904C1161.85 904 1161.68 904 1161.51 904C1161.33 904 1161.16 904 1160.99 904C1160.82 904 1160.65 904 1160.48 904C1160.31 904 1160.14 904 1159.97 904C1159.8 904 1159.63 904 1159.46 904C1159.29 904 1159.12 904 1158.95 904C1158.78 904 1158.6 904 1158.43 904C1158.26 904 1158.09 904 1157.92 904C1157.76 904 1157.59 904 1157.42 904C1157.25 904 1157.08 904 1156.91 904C1156.74 904 1156.57 904 1156.4 904C1156.23 904 1156.06 904 1155.89 904C1155.72 904 1155.55 904 1155.38 904C1155.21 904 1155.05 904 1154.88 904C1154.71 904 1154.54 904 1154.37 904C1154.2 904 1154.03 904 1153.87 904C1153.7 904 1153.53 904 1153.36 904C1153.19 904 1153.02 904 1152.86 904C1152.69 904 1152.52 904 1152.35 904C1152.19 904 1152.02 904 1151.85 904C1151.68 904 1151.52 904 1151.35 904C1151.18 904 1151.01 904 1150.85 904C1150.68 904 1150.51 904 1150.35 904C1150.18 904 1150.01 904 1149.85 904C1149.68 904 1149.51 904 1149.35 904C1149.18 904 1149.01 904 1148.85 904C1148.68 904 1148.51 904 1148.35 904C1148.18 904 1148.02 904 1147.85 904C1147.69 904 1147.52 904 1147.35 904C1147.19 904 1147.02 904 1146.86 904V922ZM1346.63 922C1352.52 922 1357.49 918.856 1360.84 916.161C1364.43 913.264 1367.7 909.614 1370.34 906.287C1373.03 902.909 1375.31 899.572 1376.9 897.106C1377.71 895.864 1378.35 894.823 1378.8 894.082C1379.02 893.711 1379.2 893.414 1379.32 893.204C1379.38 893.098 1379.43 893.014 1379.47 892.953C1379.48 892.923 1379.5 892.898 1379.51 892.879C1379.52 892.87 1379.52 892.862 1379.52 892.855C1379.53 892.852 1379.53 892.849 1379.53 892.847C1379.53 892.845 1379.53 892.844 1379.53 892.843C1379.53 892.842 1379.53 892.84 1371.72 888.369C1363.91 883.898 1363.91 883.897 1363.91 883.896C1363.91 883.896 1363.91 883.895 1363.91 883.894C1363.91 883.893 1363.91 883.893 1363.91 883.892C1363.91 883.892 1363.91 883.893 1363.91 883.895C1363.91 883.9 1363.9 883.911 1363.89 883.927C1363.88 883.959 1363.84 884.013 1363.8 884.088C1363.71 884.238 1363.57 884.47 1363.39 884.773C1363.02 885.379 1362.48 886.263 1361.79 887.33C1360.4 889.482 1358.47 892.303 1356.25 895.082C1354 897.913 1351.68 900.421 1349.54 902.142C1347.16 904.065 1346.24 904 1346.63 904V922ZM1371.72 888.369C1378.98 893.694 1378.98 893.689 1378.98 893.685C1378.98 893.684 1378.99 893.679 1378.99 893.676C1378.99 893.67 1379 893.664 1379 893.657C1379.01 893.644 1379.02 893.631 1379.03 893.617C1379.05 893.588 1379.08 893.557 1379.1 893.523C1379.15 893.455 1379.2 893.375 1379.26 893.285C1379.39 893.105 1379.53 892.881 1379.7 892.613C1380.02 892.079 1380.43 891.367 1380.85 890.489C1381.71 888.734 1382.67 886.283 1383.3 883.217C1384.6 876.957 1384.43 868.545 1379.86 858.882L1363.59 866.584C1366.39 872.504 1366.22 876.91 1365.67 879.573C1365.39 880.968 1364.96 882.004 1364.66 882.621C1364.51 882.929 1364.4 883.125 1364.35 883.201C1364.33 883.238 1364.32 883.245 1364.34 883.22C1364.35 883.207 1364.36 883.186 1364.38 883.157C1364.39 883.143 1364.41 883.126 1364.42 883.107C1364.43 883.098 1364.43 883.088 1364.44 883.078C1364.45 883.073 1364.45 883.067 1364.45 883.062C1364.45 883.059 1364.46 883.055 1364.46 883.053C1364.46 883.049 1364.47 883.045 1371.72 888.369ZM1379.79 858.744L1305.46 708.447L1289.33 716.425L1363.65 866.723L1379.79 858.744Z" fill="#000000"/>
</svg>
